<?xml version="1.0" encoding="UTF-8"?>
<svg width="32px" height="32px" viewBox="0 0 32 32" version="1.1" xmlns="http://www.w3.org/2000/svg" xmlns:xlink="http://www.w3.org/1999/xlink">
    <!-- Generator: Sketch 59.1 (86144) - https://sketch.com -->
    <title>Group 8</title>
    <desc>Created with Sketch.</desc>
    <g id="Homepage" stroke="none" stroke-width="1" fill="none" fill-rule="evenodd">
        <g id="Home---Cookies" transform="translate(-264.000000, -832.000000)">
            <g id="personal-touch" transform="translate(120.000000, 831.000000)">
                <g id="Group-3" transform="translate(0.000000, 1.000000)">
                    <g id="Group-8" transform="translate(144.000000, 0.000000)">
                        <circle id="Oval" stroke="#F76C00" stroke-width="2" fill="#FFFFFF" cx="16" cy="16" r="15"></circle>
                        <path d="M24.2812124,15.718765 C24.4270455,15.7604314 24.4999619,15.8541812 24.4999619,16.0000143 C24.4999619,16.1458474 24.4270455,16.2395972 24.2812124,16.2812636 L18.2812267,17.7812601 L16.7812303,23.7812458 C16.7395638,23.9270789 16.6458141,23.9999952 16.4999809,23.9999952 C16.3541478,23.9999952 16.260398,23.9270789 16.2187316,23.7812458 L14.7187352,17.7812601 L8.71874948,16.2812636 C8.57291633,16.2395972 8.5,16.1458474 8.5,16.0000143 C8.5,15.8541812 8.57291633,15.7604314 8.71874948,15.718765 L14.7187352,14.2187686 L16.2187316,8.21878286 C16.260398,8.07294971 16.3541478,8.00003338 16.4999809,8.00003338 C16.6458141,8.00003338 16.7395638,8.07294971 16.7812303,8.21878286 L18.2812267,14.2187686 L24.2812124,15.718765 Z M13.2812386,13.5625201 L11.5624927,11.4062753 C11.4583264,11.2812756 11.4583264,11.1666923 11.5624927,11.0625261 C11.666659,10.9583598 11.7812422,10.9583598 11.9062419,11.0625261 L14.0624867,12.781272 L13.9062371,13.4062705 L13.2812386,13.5625201 Z M19.7187233,18.4375085 L21.4374751,20.5937534 C21.5416354,20.7187531 21.5416354,20.8333363 21.4374751,20.9375085 C21.3333029,21.0416688 21.2187197,21.0416688 21.09372,20.9375085 L18.9374751,19.2187566 L19.0937247,18.5937581 L19.7187233,18.4375085 Z M19.7187233,13.5625201 L19.0937247,13.4062705 L18.9374751,12.781272 L21.09372,11.0625261 C21.2187197,10.9583598 21.3333029,10.9583598 21.4374751,11.0625261 C21.5416354,11.1666923 21.5416354,11.2812756 21.4374751,11.4062753 L19.7187233,13.5625201 Z M13.2812386,18.4375085 L13.9062371,18.5937581 L14.0624867,19.2187566 L11.9062419,20.9375085 C11.7812422,21.0416688 11.666659,21.0416688 11.5624927,20.9375085 C11.4583264,20.8333363 11.4583264,20.7187531 11.5624927,20.5937534 L13.2812386,18.4375085 Z" id="s" fill="#42586E" fill-rule="nonzero" transform="translate(16.499981, 16.000014) scale(-1, 1) translate(-16.499981, -16.000014) "></path>
                    </g>
                </g>
            </g>
        </g>
    </g>
</svg>