<?xml version="1.0" encoding="UTF-8"?>
<svg width="32px" height="32px" viewBox="0 0 32 32" version="1.1" xmlns="http://www.w3.org/2000/svg" xmlns:xlink="http://www.w3.org/1999/xlink">
    <!-- Generator: Sketch 59.1 (86144) - https://sketch.com -->
    <title>Group 26</title>
    <desc>Created with Sketch.</desc>
    <g id="Homepage" stroke="none" stroke-width="1" fill="none" fill-rule="evenodd">
        <g id="Home---Cookies" transform="translate(-1144.000000, -832.000000)">
            <g id="personal-touch" transform="translate(120.000000, 831.000000)">
                <g id="Group-3" transform="translate(880.000000, 1.000000)">
                    <g id="Group-26" transform="translate(144.000000, 0.000000)">
                        <circle id="Oval" stroke="#F76C00" stroke-width="2" fill="#FFFFFF" cx="16" cy="16" r="15"></circle>
                        <circle id="Oval" stroke="#F76C00" stroke-width="2" fill="#FFFFFF" cx="16" cy="16" r="15"></circle>
                        <g id="curved-arrow" transform="translate(8.000000, 9.000000)" fill="#42586E" fill-rule="nonzero" stroke="#42586E" stroke-width="0.8">
                            <path d="M12.6667421,7.33329365 L3.33335317,7.33329365 C2.23034661,7.33329365 1.33334127,6.43628831 1.33334127,5.33328175 C1.33334127,4.23027518 2.23034661,3.33326984 3.33335317,3.33326984 L13.7240817,3.33326984 L12.8620766,4.19527497 C12.6017417,4.45560985 12.6017417,4.87761237 12.8620766,5.13794725 C12.9924107,5.26828136 13.162745,5.33328175 13.3334127,5.33328175 C13.5040804,5.33328175 13.6744147,5.26828136 13.8047488,5.13794725 L15.8047607,3.13793534 C16.0650956,2.87760046 16.0650956,2.45559795 15.8047607,2.19526307 L13.8047488,0.195251162 C13.544414,-0.0650837207 13.1224114,-0.0650837207 12.8620766,0.195251162 C12.6017417,0.455586045 12.6017417,0.877588557 12.8620766,1.13792344 L13.7240817,1.99992857 L3.33335317,1.99992857 C1.49534223,1.99992857 0,3.49527081 0,5.33328175 C0,7.17129269 1.49534223,8.66663492 3.33335317,8.66663492 L12.6667421,8.66663492 C13.7697486,8.66663492 14.666754,9.56364026 14.666754,10.6666468 C14.666754,11.7696534 13.7697486,12.6666587 12.6667421,12.6666587 L0.666670635,12.6666587 C0.298668444,12.6666587 0,12.9653272 0,13.3333294 C0,13.7013316 0.298668444,14 0.666670635,14 L12.6667421,14 C14.504753,14 16.0000952,12.5046578 16.0000952,10.6666468 C16.0000952,8.82863588 14.504753,7.33329365 12.6667421,7.33329365 Z" id="Path"></path>
                        </g>
                    </g>
                </g>
            </g>
        </g>
    </g>
</svg>