<?xml version="1.0" encoding="UTF-8"?>
<svg width="68px" height="48px" viewBox="0 0 68 48" version="1.1" xmlns="http://www.w3.org/2000/svg" xmlns:xlink="http://www.w3.org/1999/xlink">
    <!-- Generator: Sketch 59.1 (86144) - https://sketch.com -->
    <title>Group 16</title>
    <desc>Created with Sketch.</desc>
    <g id="Homepage" stroke="none" stroke-width="1" fill="none" fill-rule="evenodd">
        <g transform="translate(-438.000000, -1421.000000)" id="Solutions">
            <g transform="translate(0.000000, 1162.000000)">
                <g id="Group-12" transform="translate(80.000000, 228.000000)">
                    <g id="Group-24" transform="translate(327.000000, 0.000000)">
                        <g id="Group-16" transform="translate(32.000000, 32.000000)">
                            <polygon id="Fill-1" fill="#FEFEFE" points="13.1904762 45.9524793 52.6190476 45.9524793 52.6190476 26.2789256 13.1904762 26.2789256"></polygon>
                            <polygon id="Stroke-2" stroke="#F76C00" stroke-width="2" points="13.1904762 45.9524793 52.6190476 45.9524793 52.6190476 26.2789256 13.1904762 26.2789256"></polygon>
                            <line x1="32.9047619" y1="29.5578512" x2="32.9047619" y2="42.6735537" id="Stroke-4" stroke="#F76C00" stroke-width="2"></line>
                            <line x1="26.3333333" y1="29.5578512" x2="26.3333333" y2="42.6735537" id="Stroke-5" stroke="#F76C00" stroke-width="2"></line>
                            <line x1="19.7619048" y1="29.5578512" x2="19.7619048" y2="42.6735537" id="Stroke-6" stroke="#F76C00" stroke-width="2"></line>
                            <line x1="39.4761905" y1="29.5578512" x2="39.4761905" y2="42.6735537" id="Stroke-7" stroke="#F76C00" stroke-width="2"></line>
                            <line x1="46.047619" y1="29.5578512" x2="46.047619" y2="42.6735537" id="Stroke-8" stroke="#F76C00" stroke-width="2"></line>
                            <polyline id="Stroke-9" stroke="#F76C00" stroke-width="2" points="2.23809524 5.51239669 2.23809524 45.9524793 8.80952381 45.9524793 8.80952381 8.79132231 57 8.79132231 57 45.9524793 63.5714286 45.9524793 63.5714286 5.51239669"></polyline>
                            <line x1="8.80952381" y1="17.535124" x2="57" y2="17.535124" id="Stroke-11" stroke="#F76C00" stroke-width="2"></line>
                            <line x1="23.047619" y1="13.1632231" x2="58.0952381" y2="13.1632231" id="Stroke-12" stroke="#F76C00" stroke-width="2"></line>
                            <line x1="9.9047619" y1="13.1632231" x2="16.4761905" y2="13.1632231" id="Stroke-13" stroke="#F76C00" stroke-width="2"></line>
                            <polygon id="Stroke-14" stroke="#F76C00" stroke-width="2" points="0.0476190476 4.41942149 65.7619048 4.41942149 65.7619048 0.0475206612 0.0476190476 0.0475206612"></polygon>
                        </g>
                    </g>
                </g>
            </g>
        </g>
    </g>
</svg>