<?xml version="1.0" encoding="UTF-8"?>
<svg width="52px" height="48px" viewBox="0 0 52 48" version="1.1" xmlns="http://www.w3.org/2000/svg" xmlns:xlink="http://www.w3.org/1999/xlink">
    <!-- Generator: Sketch 59.1 (86144) - https://sketch.com -->
    <title>Group 4</title>
    <desc>Created with Sketch.</desc>
    <g id="Homepage" stroke="none" stroke-width="1" fill="none" fill-rule="evenodd">
        <g transform="translate(-765.000000, -1421.000000)" id="Solutions" stroke="#F76C00" stroke-width="2">
            <g transform="translate(0.000000, 1162.000000)">
                <g id="Group-12" transform="translate(80.000000, 228.000000)">
                    <g id="Group-23" transform="translate(654.000000, 0.000000)">
                        <g id="Group-4" transform="translate(57.000000, 55.000000) scale(-1, 1) translate(-57.000000, -55.000000) translate(32.000000, 32.000000)">
                            <rect id="Rectangle" x="9.2" y="1.31428571" width="13.1428571" height="13.1428571"></rect>
                            <rect id="Rectangle" x="28.9142857" y="15.7714286" width="11.8285714" height="11.8285714"></rect>
                            <rect id="Rectangle" x="40.7428571" y="0" width="7.88571429" height="7.88571429"></rect>
                            <rect id="Rectangle" x="0" y="17.0857143" width="7.88571429" height="7.88571429"></rect>
                            <rect id="Rectangle" x="38.1142857" y="34.1714286" width="11.8285714" height="11.8285714"></rect>
                            <rect id="Rectangle" x="13.1428571" y="30.2285714" width="9.2" height="9.2"></rect>
                            <line x1="28.9142857" y1="21.6857143" x2="6.57142857" y2="21.6857143" id="Path"></line>
                            <line x1="16.4285714" y1="14.4571429" x2="16.4285714" y2="30.2285714" id="Path"></line>
                            <line x1="39.4285714" y1="4.6" x2="34.1714286" y2="4.6" id="Path"></line>
                            <line x1="34.8285714" y1="14.4571429" x2="34.8285714" y2="5.25714286" id="Path"></line>
                            <line x1="32.2" y1="26.2857143" x2="32.2" y2="38.1142857" id="Path"></line>
                            <line x1="30.2285714" y1="38.7714286" x2="38.1142857" y2="38.7714286" id="Path"></line>
                        </g>
                    </g>
                </g>
            </g>
        </g>
    </g>
</svg>