<?xml version="1.0" encoding="UTF-8"?>
<svg width="73px" height="48px" viewBox="0 0 73 48" version="1.1" xmlns="http://www.w3.org/2000/svg" xmlns:xlink="http://www.w3.org/1999/xlink">
    <!-- Generator: Sketch 59.1 (86144) - https://sketch.com -->
    <title>Group 23</title>
    <desc>Created with Sketch.</desc>
    <g id="Homepage" stroke="none" stroke-width="1" fill="none" fill-rule="evenodd">
        <g transform="translate(-112.000000, -1421.000000)" id="Solutions">
            <g transform="translate(0.000000, 1162.000000)">
                <g id="Group-12" transform="translate(80.000000, 228.000000)">
                    <g id="Group-25">
                        <g id="Group-23" transform="translate(32.000000, 32.000000)">
                            <polygon id="Fill-1" fill="#FEFEFE" points="26.5263158 45.7799043 72 45.7799043 72 23 26.5263158 23"></polygon>
                            <polygon id="Stroke-2" stroke="#F76C00" stroke-width="2" points="26.5263158 45.7799043 72 45.7799043 72 23 26.5263158 23"></polygon>
                            <line x1="49.2631579" y1="26.7966507" x2="49.2631579" y2="41.9832536" id="Stroke-4" stroke="#F76C00" stroke-width="2"></line>
                            <line x1="41.6842105" y1="26.7966507" x2="41.6842105" y2="41.9832536" id="Stroke-5" stroke="#F76C00" stroke-width="2"></line>
                            <line x1="34.1052632" y1="26.7966507" x2="34.1052632" y2="41.9832536" id="Stroke-6" stroke="#F76C00" stroke-width="2"></line>
                            <line x1="56.8421053" y1="26.7966507" x2="56.8421053" y2="41.9832536" id="Stroke-7" stroke="#F76C00" stroke-width="2"></line>
                            <line x1="64.4210526" y1="26.7966507" x2="64.4210526" y2="41.9832536" id="Stroke-8" stroke="#F76C00" stroke-width="2"></line>
                            <polygon id="Fill-9" fill="#FEFEFE" points="26.5263158 23 72 23 72 0.220095694 26.5263158 0.220095694"></polygon>
                            <polygon id="Stroke-10" stroke="#F76C00" stroke-width="2" points="26.5263158 23 72 23 72 0.220095694 26.5263158 0.220095694"></polygon>
                            <line x1="49.2631579" y1="4.01674641" x2="49.2631579" y2="19.2033493" id="Stroke-12" stroke="#F76C00" stroke-width="2"></line>
                            <line x1="41.6842105" y1="4.01674641" x2="41.6842105" y2="19.2033493" id="Stroke-13" stroke="#F76C00" stroke-width="2"></line>
                            <line x1="34.1052632" y1="4.01674641" x2="34.1052632" y2="19.2033493" id="Stroke-14" stroke="#F76C00" stroke-width="2"></line>
                            <line x1="56.8421053" y1="4.01674641" x2="56.8421053" y2="19.2033493" id="Stroke-15" stroke="#F76C00" stroke-width="2"></line>
                            <line x1="64.4210526" y1="4.01674641" x2="64.4210526" y2="19.2033493" id="Stroke-16" stroke="#F76C00" stroke-width="2"></line>
                            <line x1="22.7368421" y1="17.937799" x2="5.05263158" y2="17.937799" id="Stroke-17" stroke="#F76C00" stroke-width="2"></line>
                            <line x1="22.7368421" y1="12.8755981" x2="0" y2="12.8755981" id="Stroke-18" stroke="#F76C00" stroke-width="2"></line>
                            <line x1="22.7368421" y1="23" x2="10.1052632" y2="23" id="Stroke-20" stroke="#F76C00" stroke-width="2"></line>
                            <line x1="22.7368421" y1="28.062201" x2="15.1578947" y2="28.062201" id="Stroke-21" stroke="#F76C00" stroke-width="2"></line>
                            <line x1="22.7368421" y1="33.1244019" x2="20.2105263" y2="33.1244019" id="Stroke-22" stroke="#F76C00" stroke-width="2"></line>
                        </g>
                    </g>
                </g>
            </g>
        </g>
    </g>
</svg>