<?xml version="1.0" encoding="UTF-8"?>
<svg width="32px" height="32px" viewBox="0 0 32 32" version="1.1" xmlns="http://www.w3.org/2000/svg" xmlns:xlink="http://www.w3.org/1999/xlink">
    <!-- Generator: Sketch 59.1 (86144) - https://sketch.com -->
    <title>location</title>
    <desc>Created with Sketch.</desc>
    <g id="Homepage" stroke="none" stroke-width="1" fill="none" fill-rule="evenodd">
        <g id="Home---Cookies" transform="translate(-704.000000, -832.000000)">
            <g id="personal-touch" transform="translate(120.000000, 831.000000)">
                <g id="Group-3" transform="translate(440.000000, 0.000000)">
                    <g id="location" transform="translate(144.000000, 1.000000)">
                        <circle id="Oval" stroke="#F76C00" stroke-width="2" fill="#FFFFFF" cx="16" cy="16" r="15"></circle>
                        <path d="M21.1679397,9.85940395 C21.496064,9.7135711 21.8241882,9.7181281 22.1523124,9.87307579 C22.4804366,10.0280235 22.7219724,10.2695592 22.87692,10.5976834 C23.0318677,10.9258077 23.0364247,11.2539319 22.8905919,11.5820561 L17.6679481,22.957029 C17.4674279,23.3762987 17.1620899,23.6269492 16.7519346,23.7089803 C16.3417794,23.7910114 15.9680822,23.7135377 15.6308436,23.476559 C15.2936049,23.2395802 15.1249854,22.8932272 15.1249854,22.437499 L15.1249854,17.6250104 L10.3124969,17.6250104 C9.85676865,17.6250104 9.51041559,17.4563909 9.27343685,17.1191523 C9.03645811,16.7819136 8.95898447,16.4082165 9.04101553,15.9980612 C9.12304658,15.5879059 9.37369716,15.282568 9.79296686,15.0820477 L21.1679397,9.85940395 Z" id="l" fill="#42586E" fill-rule="nonzero"></path>
                    </g>
                </g>
            </g>
        </g>
    </g>
</svg>