<svg width="75" height="44" viewBox="0 0 75 44" fill="none" xmlns="http://www.w3.org/2000/svg">
<g clip-path="url(#clip0_2497_1864)">
<path d="M23.3141 10.8565C23.1143 10.8047 22.9093 10.7775 22.7032 10.7756C22.4797 10.7756 22.2397 10.9093 21.9674 11.1848C21.7423 11.4118 21.4831 11.7048 21.1977 12.0533C20.9123 12.4018 20.606 12.7573 20.2569 13.1498C19.9104 13.5376 19.5307 13.8939 19.1223 14.2146C18.71 14.5392 18.2623 14.8152 17.788 15.0374C17.3228 15.2533 16.8164 15.3639 16.3043 15.3612C15.8435 15.3612 15.5092 15.2838 15.3356 15.136C15.1591 14.9883 15.0386 14.7838 14.9943 14.5569C14.9392 14.279 14.9237 13.9945 14.9481 13.7121C14.9743 13.3856 14.9874 13.0812 14.9874 12.8092C14.9874 12.7617 14.9874 12.6737 14.9996 12.5197C15.0074 12.3965 15.0232 12.2557 15.0476 12.1008C15.0748 11.9367 15.1112 11.7742 15.1567 11.6142C15.1911 11.4923 15.2379 11.3744 15.2963 11.2622L15.3495 11.2411V11.2129C15.4543 11.1522 15.6384 11.058 15.9605 10.9111C16.3357 10.7433 16.7721 10.5468 17.2695 10.3215C17.7652 10.0971 18.2872 9.85245 18.823 9.59374C19.3589 9.33501 19.8528 9.07631 20.284 8.82814C20.6528 8.62278 21.0032 8.38546 21.3312 8.11885C21.7161 7.79151 21.737 7.54421 21.6594 7.37878C21.6455 7.02604 21.5205 6.68695 21.3024 6.41078C21.072 6.11449 20.7898 5.86309 20.4698 5.66894C20.1422 5.46755 19.7914 5.30736 19.4252 5.19198C19.0893 5.08175 18.739 5.02244 18.3858 5.01598C17.6518 5.00278 17.0217 5.11541 16.5129 5.35478C16.0266 5.57755 15.5906 5.89827 15.2317 6.29725C14.8997 6.6897 14.6038 7.11177 14.3477 7.55831C13.7943 8.46911 13.509 9.55151 13.3641 10.3417C12.007 10.9489 10.3488 11.6855 10.0573 11.792C9.54591 11.9776 8.99347 12.1836 8.41572 12.4027L6.7907 13.024C6.29238 13.2149 5.8307 13.3918 5.41006 13.552C5.00947 13.7033 4.70227 13.816 4.49543 13.8855L4.48234 13.8908C4.31502 13.9566 4.14429 14.0133 3.97093 14.0606C3.74925 14.124 3.53456 14.1829 3.33297 14.2366C3.14445 14.2885 2.97688 14.3246 2.83463 14.3545L2.36075 3.31845C2.36075 2.84325 2.23943 2.54494 1.99246 2.40501C1.74547 2.28222 1.4716 2.22469 1.19653 2.23782C0.950932 2.23194 0.706176 2.26886 0.473035 2.34694C0.317689 2.40414 0.0576172 2.56958 0.0576172 3.02981C0.058482 3.17025 0.0683938 3.31045 0.0872899 3.44958C0.103872 3.57894 0.120454 3.79631 0.137035 4.09461C0.153617 4.39294 0.18329 4.80831 0.224308 5.33278C0.266198 5.83965 0.304598 6.53311 0.338635 7.39374C0.372671 8.25438 0.410198 9.30511 0.453835 10.6004C0.496598 11.865 0.534998 13.4024 0.569035 15.1694C0.569035 16.1295 1.18693 16.2333 1.45223 16.2333C2.48568 16.2323 3.51163 16.0568 4.48759 15.7141C5.45543 15.3762 6.42679 14.9846 7.37456 14.549C8.32234 14.1134 9.27886 13.6928 10.2336 13.2897C10.7293 13.0812 12.0541 12.5505 13.2131 12.0885C13.2162 12.1131 13.2206 12.1375 13.2262 12.1616C13.2419 12.5954 13.2541 13.0732 13.2629 13.581C13.2683 14.1124 13.3594 14.6393 13.5325 15.1412C13.708 15.6445 14.0248 16.0854 14.4445 16.4102C14.8809 16.7516 15.5136 16.925 16.334 16.925C16.8276 16.9102 17.3148 16.809 17.774 16.6258C18.3258 16.4191 18.86 16.1671 19.3711 15.8725C19.9238 15.5559 20.4574 15.2065 20.969 14.8262C21.464 14.4633 21.934 14.0669 22.3759 13.64C22.743 13.2878 23.078 12.9031 23.3768 12.4907C23.6571 12.0938 23.7932 11.7515 23.7932 11.4444C23.7932 11.1372 23.6187 10.9331 23.3141 10.8565ZM15.6707 9.34471C15.711 9.1374 15.7785 8.93647 15.8714 8.74718C16.0542 8.40029 16.2756 8.07553 16.5312 7.77918C16.7861 7.47803 17.0762 7.20912 17.3952 6.97838C17.625 6.80769 17.8965 6.70333 18.1807 6.67654C18.6194 6.65042 19.0548 6.76736 19.4226 7.01005C19.4985 7.06374 19.4985 7.10334 19.4985 7.12534C19.4985 7.27581 19.3423 7.47734 19.0621 7.68501C18.6769 7.96542 18.2681 8.21129 17.8403 8.41981C17.4153 8.63541 16.2371 9.14318 15.6707 9.34471ZM31.6487 5.88191C31.6487 5.88191 31.1834 5.46478 27.2771 7.28198C27.2727 7.45798 27.2946 7.68151 27.3112 8.00005C27.3321 8.38551 27.3557 8.82871 27.3818 9.32974L27.4009 9.69318C27.4341 10.3268 27.4673 11.0132 27.5032 11.7981C27.5389 12.5831 27.5721 13.2616 27.6052 13.8899C27.6393 14.5323 27.6655 15.1034 27.683 15.5874C27.7005 16.0934 27.7082 16.3864 27.7082 16.5114V16.5316C27.6471 17.2761 27.25 17.3879 27.018 17.3879C26.7055 17.3879 26.3712 17.2673 26.0239 17.0297L25.9262 16.9628L25.3021 8.04231C25.2532 8.06605 25.2062 8.08981 25.1598 8.11445C25.0141 8.19191 24.8675 8.26494 24.7234 8.33005C24.5757 8.39935 24.4205 8.45132 24.2609 8.48494C24.093 8.51624 23.9209 8.51624 23.753 8.48494C23.6643 8.4807 23.578 8.45437 23.5018 8.40828C23.4257 8.36222 23.3621 8.29785 23.3166 8.22094C23.2357 8.09119 23.1721 7.95123 23.1273 7.80471C23.0814 7.66127 23.048 7.51403 23.0277 7.36471C23.0066 7.23399 23.0082 7.10052 23.033 6.97045L23.06 6.85518C23.06 6.85518 23.5793 6.92821 25.4837 5.82294C25.4941 5.38294 25.6373 0.459336 25.6373 0.459336V0.439976C25.6582 0.318536 25.7759 -0.0616235 26.3232 0.0184565C26.558 0.0527765 26.8066 0.0985365 27.0616 0.153977C27.1289 0.160517 27.1955 0.173481 27.2605 0.192697C27.3257 0.209544 27.3898 0.23011 27.4525 0.254297L27.6218 0.322056L27.6052 0.504216C27.5702 0.883203 27.5318 1.29387 27.49 1.73622C27.4473 2.17622 27.4089 2.61621 27.3748 3.05621C27.3409 3.49621 27.3164 3.92038 27.3164 4.33661C27.3089 4.61413 27.3182 4.89186 27.3443 5.16821L29.8116 4.31638C30.5777 4.00398 31.1982 4.37974 31.44 4.82325C31.5309 5.06076 31.5932 5.3083 31.6259 5.56071L31.6487 5.88191ZM44.6348 13.1304C44.4268 13.523 44.17 13.8871 43.8702 14.2137C43.4991 14.6237 43.0955 15.0025 42.6632 15.3463C42.1998 15.7203 41.7277 16.0652 41.2625 16.3697C40.8198 16.6624 40.3525 16.9156 39.8662 17.1265C39.4193 17.3166 39.0398 17.4099 38.7098 17.4099H38.64C38.1898 17.4099 37.9121 17.2691 37.8143 16.9945C37.7493 16.8313 37.7143 16.6574 37.7114 16.4815C37.7193 16.3169 37.7489 16.1955 37.8973 16.1084C38.0457 16.0212 37.9977 16.0696 38.3966 15.8716C38.7571 15.6956 39.1898 15.4519 39.6848 15.1553C40.1796 14.8588 40.6989 14.527 41.2225 14.1732C41.6743 13.8757 42.1021 13.5426 42.5018 13.1771C42.8902 12.8101 42.9652 12.5936 42.9766 12.4977C42.9766 12.4634 42.8614 12.3701 42.4834 12.3164C41.9955 12.2478 41.5 12.2537 41.0139 12.334C40.6382 12.408 40.2673 12.5041 39.9027 12.6218L38.9427 12.9368C38.5973 13.0465 38.2339 13.0866 37.873 13.0548C37.0491 13.0548 36.4662 12.8242 36.1389 12.3763C35.8273 11.9495 35.6693 11.3731 35.6693 10.6638C35.6714 9.95326 35.8696 9.25732 36.2418 8.65391C36.6171 8.02986 37.1052 7.48241 37.6809 7.03998C38.2909 6.57552 38.9702 6.21168 39.6934 5.96198C40.4425 5.69566 41.2309 5.55938 42.0252 5.55894C42.3064 5.5556 42.5871 5.57828 42.8641 5.62671C43.0237 5.65661 43.3946 5.78774 43.3946 6.35094C43.3946 6.62198 43.263 6.87278 43.0018 7.09541C42.7671 7.30331 42.4652 7.41753 42.1527 7.41661C42.0843 7.41276 42.0171 7.39853 41.953 7.37438C41.863 7.34067 41.7755 7.30068 41.6912 7.25471C41.1675 7.00038 40.4693 7.09981 40.0059 7.32861C39.5184 7.56967 39.0782 7.89761 38.7064 8.29661C38.3352 8.68913 38.0259 9.13667 37.7891 9.62365C37.5675 10.0856 37.4548 10.4984 37.4548 10.8556C37.4491 10.9299 37.4696 11.0037 37.5125 11.0642C37.5648 11.1245 37.6332 11.1682 37.7098 11.19C37.8296 11.2277 37.9541 11.2485 38.0798 11.2516C38.2325 11.2587 38.3966 11.2622 38.5684 11.2622C38.8987 11.2609 39.2275 11.2208 39.5484 11.1425C39.8916 11.0598 40.2293 10.9665 40.5505 10.8539C40.8907 10.7395 41.2425 10.6383 41.5977 10.5538C41.9727 10.4647 42.3566 10.4201 42.7418 10.4209C42.9639 10.4255 43.1837 10.4699 43.3902 10.552C43.6225 10.6401 43.8377 10.7688 44.0257 10.9322C44.213 11.0937 44.3757 11.2823 44.5082 11.4919C44.6393 11.6986 44.7207 11.9334 44.7457 12.1774C44.8582 12.4361 44.8225 12.76 44.6348 13.1304ZM34.7014 5.01598C34.7668 6.00685 34.643 6.67831 34.3925 7.71231C34.2825 8.21145 34.1007 8.69172 33.8532 9.13791C33.6523 9.47668 33.1357 9.66591 32.7962 9.35701C32.6177 9.16309 32.4968 8.92251 32.4471 8.66271C32.4298 8.49374 32.4516 8.75071 32.4409 8.60814C32.4252 8.42456 32.4252 8.23996 32.4409 8.05638C32.4621 7.82758 32.5125 7.49231 32.5641 7.20541C32.6266 6.88146 32.6702 6.55414 32.695 6.22511C32.7048 5.91488 32.6864 5.60441 32.64 5.29758C32.6121 5.07758 32.5527 4.74494 32.5177 4.55134C32.4821 4.32341 32.4637 4.22221 32.4402 4.02334C32.438 4.01023 32.438 3.99685 32.4402 3.98374C32.4402 3.95381 32.435 3.88341 32.4402 3.84381C32.4802 3.59391 32.4621 3.44871 32.6443 3.21551C32.7289 3.11057 32.8373 3.02796 32.9605 2.97474C33.0837 2.92155 33.2177 2.89937 33.3514 2.91014C33.6218 2.92421 33.9525 3.01311 34.155 3.27358C34.3321 3.50444 34.4637 3.76729 34.5425 4.04798C34.6284 4.36425 34.6818 4.68866 34.7014 5.01598Z" fill="white"/>
<path d="M0 19.8V44H6.80727V26.664H9.86182V44H16.6691V26.664H19.7236V44H26.5309V25.432L20.9455 19.8H0ZM30.0218 19.8V44H52.2764V19.8H30.0218ZM42.9382 37.136H39.4473V26.664H42.9382V37.136ZM55.7673 19.8V44H69.3818L74.9673 38.368V25.432L69.3818 19.8H55.7673ZM66.8509 37.136H63.36V26.664H66.8509V37.136Z" fill="url(#paint0_linear_2497_1864)"/>
</g>
<defs>
<linearGradient id="paint0_linear_2497_1864" x1="37.4836" y1="18.979" x2="37.4836" y2="56.2329" gradientUnits="userSpaceOnUse">
<stop offset="0.38" stop-color="#FFC527"/>
<stop offset="1" stop-color="#FF8A73"/>
</linearGradient>
<clipPath id="clip0_2497_1864">
<rect width="75" height="44" fill="white"/>
</clipPath>
</defs>
</svg>
