<svg width="782" height="120" viewBox="0 0 782 120" fill="none" xmlns="http://www.w3.org/2000/svg">
<mask id="mask0_2497_1857" style="mask-type:alpha" maskUnits="userSpaceOnUse" x="0" y="0" width="783" height="120">
<path fill-rule="evenodd" clip-rule="evenodd" d="M0 120V0H103.968L131.693 27.9273V120H97.9034V34.0364H82.7414V120H48.9517V34.0364H33.7897V120H0ZM149.021 120V0H259.487V120H149.021ZM195.807 85.9636H213.135V34.0364H195.807V85.9636ZM276.815 120V0H344.395L372.12 27.9273V92.0727L344.395 120H276.815ZM314.504 85.9636H331.832V34.0364H314.504V85.9636ZM520.203 119.836C511.28 119.836 503.605 118.113 497.177 114.667C490.748 111.221 485.807 106.53 482.354 100.595C478.9 94.5641 477.173 87.6718 477.173 79.9179C477.173 74.1744 478.132 68.8615 480.051 63.9795C481.97 59.0974 484.656 54.8855 488.11 51.3436C491.66 47.706 495.785 44.9299 500.487 43.0154C505.284 41.0051 510.513 40 516.173 40C521.834 40 526.967 41.0051 531.572 43.0154C536.273 44.9299 540.303 47.706 543.661 51.3436C547.019 54.8855 549.561 59.0974 551.288 63.9795C553.111 68.8615 553.927 74.1744 553.735 79.9179L553.591 85.9487H505.58C505.699 86.1916 505.824 86.4309 505.955 86.6667C507.49 89.2513 509.697 91.2615 512.575 92.6974C515.55 94.1333 519.195 94.8513 523.513 94.8513C526.391 94.8513 528.838 94.5162 530.852 93.8462C532.963 93.0803 535.17 91.8838 537.472 90.2564L550.856 109.067C547.307 111.843 543.805 113.997 540.351 115.528C536.993 117.06 533.635 118.161 530.277 118.831C527.015 119.501 523.657 119.836 520.203 119.836ZM505.236 70.0103C504.91 70.7263 504.639 71.4921 504.424 72.3077H527.682C527.634 70.6093 527.156 69.1255 526.247 67.8564C525.384 66.4205 524.136 65.3197 522.505 64.5538C520.874 63.788 518.956 63.4051 516.749 63.4051C513.967 63.4051 511.616 63.9795 509.697 65.1282C507.778 66.2769 506.291 67.9043 505.236 70.0103ZM417.124 118.4L385.175 41.5795H417.699L429.77 84.8728L441.733 41.5795H474.257L440.725 118.4H417.124ZM567.254 41.5795V118.4H596.468V82.7897C596.468 80.8752 596.708 79.2 597.188 77.7641C597.667 76.3282 598.339 75.0838 599.202 74.0308C600.162 72.9778 601.313 72.212 602.656 71.7333C604.095 71.159 605.679 70.8718 607.405 70.8718C609.804 70.8718 612.011 71.159 614.026 71.7333C616.136 72.3077 617.671 72.9299 618.631 73.6L626.69 41.2923C625.251 40.9094 623.764 40.6222 622.229 40.4308C620.693 40.1436 619.062 40 617.336 40C613.018 40 608.941 41.0051 605.103 43.0154C601.361 45.0256 598.147 47.8017 595.461 51.3436C595.308 51.5396 595.157 51.7372 595.009 51.9364L594.309 41.5795H567.254ZM664.563 119.836C656.216 119.836 648.924 118.591 642.688 116.103C636.548 113.518 631.75 110.311 628.297 106.482L645.278 91.9795C648.349 94.6598 651.85 96.6701 655.784 98.0103C659.814 99.2547 663.172 99.8769 665.858 99.8769C666.817 99.8769 667.633 99.8291 668.305 99.7333C669.072 99.5419 669.648 99.3026 670.031 99.0154C670.511 98.6325 670.847 98.2496 671.039 97.8667C671.327 97.4838 671.471 97.0051 671.471 96.4308C671.471 94.9949 670.703 93.9419 669.168 93.2718C668.305 92.8889 666.865 92.4103 664.851 91.8359C662.932 91.2615 660.389 90.5915 657.223 89.8256C653.481 88.8684 650.028 87.6718 646.861 86.2359C643.791 84.8 641.153 83.1248 638.946 81.2103C636.644 79.1043 634.821 76.7111 633.477 74.0308C632.23 71.3504 631.607 68.335 631.607 64.9846C631.607 61.0598 632.518 57.5658 634.341 54.5026C636.164 51.4393 638.658 48.8547 641.824 46.7487C644.991 44.547 648.54 42.8718 652.474 41.7231C656.408 40.5744 660.437 40 664.563 40C669.264 40 673.629 40.4786 677.659 41.4359C681.784 42.2974 685.622 43.5897 689.172 45.3128C692.818 46.9402 696.128 48.9026 699.102 51.2L684.279 67.7128C682.648 66.3726 680.729 65.0803 678.522 63.8359C676.412 62.5914 674.157 61.5863 671.758 60.8205C669.456 59.959 667.297 59.5282 665.282 59.5282C664.227 59.5282 663.316 59.6239 662.548 59.8154C661.876 59.9111 661.301 60.1504 660.821 60.5333C660.341 60.8205 659.958 61.2034 659.67 61.682C659.478 62.065 659.382 62.5436 659.382 63.1179C659.382 63.8838 659.622 64.6017 660.102 65.2718C660.581 65.9419 661.349 66.5162 662.404 66.9949C663.268 67.3778 664.707 67.9043 666.721 68.5744C668.832 69.2444 671.902 70.1538 675.932 71.3026C680.249 72.547 684.039 73.9829 687.301 75.6103C690.659 77.2376 693.346 79.1521 695.36 81.3538C696.704 82.8855 697.759 84.6085 698.526 86.5231C699.294 88.4376 699.678 90.4957 699.678 92.6974C699.678 97.9624 698.143 102.653 695.073 106.769C692.098 110.79 687.973 113.997 682.696 116.39C677.419 118.687 671.375 119.836 664.563 119.836ZM725.415 114.667C731.843 118.113 739.518 119.836 748.441 119.836C751.895 119.836 755.253 119.501 758.515 118.831C761.873 118.161 765.231 117.06 768.589 115.528C772.043 113.997 775.545 111.843 779.094 109.067L765.711 90.2564C763.408 91.8838 761.201 93.0803 759.09 93.8462C757.076 94.5162 754.629 94.8513 751.751 94.8513C747.433 94.8513 743.788 94.1333 740.813 92.6974C737.935 91.2615 735.729 89.2513 734.193 86.6667C734.062 86.4309 733.937 86.1916 733.818 85.9487H781.829L781.973 79.9179C782.165 74.1744 781.349 68.8615 779.526 63.9795C777.799 59.0974 775.257 54.8855 771.899 51.3436C768.541 47.706 764.511 44.9299 759.81 43.0154C755.205 41.0051 750.072 40 744.411 40C738.751 40 733.522 41.0051 728.725 43.0154C724.023 44.9299 719.898 47.706 716.348 51.3436C712.894 54.8855 710.208 59.0974 708.289 63.9795C706.37 68.8615 705.411 74.1744 705.411 79.9179C705.411 87.6718 707.138 94.5641 710.592 100.595C714.045 106.53 718.987 111.221 725.415 114.667ZM732.662 72.3077C732.877 71.4921 733.148 70.7263 733.474 70.0103C734.529 67.9043 736.016 66.2769 737.935 65.1282C739.854 63.9795 742.205 63.4051 744.987 63.4051C747.194 63.4051 749.112 63.788 750.743 64.5538C752.375 65.3197 753.622 66.4205 754.485 67.8564C755.394 69.1255 755.872 70.6093 755.92 72.3077H732.662Z" fill="url(#paint0_linear_2497_1857)"/>
</mask>
<g mask="url(#mask0_2497_1857)">
<path d="M417.124 118.4L385.175 41.5795H417.699L433.674 98.8718H425.902L441.733 41.5795H474.257L440.725 118.4H417.124Z" fill="white"/>
<path d="M520.203 119.836C511.28 119.836 503.605 118.113 497.177 114.667C490.749 111.221 485.808 106.53 482.354 100.595C478.9 94.5641 477.173 87.6718 477.173 79.9179C477.173 74.1744 478.132 68.8615 480.051 63.9795C481.97 59.0974 484.656 54.8855 488.11 51.3436C491.66 47.706 495.786 44.9299 500.487 43.0154C505.284 41.0051 510.513 40 516.173 40C521.834 40 526.967 41.0051 531.572 43.0154C536.273 44.9299 540.303 47.706 543.661 51.3436C547.019 54.8855 549.561 59.0974 551.288 63.9795C553.111 68.8615 553.927 74.1744 553.735 79.9179L553.591 85.9487H493.291L489.981 72.3077H530.421L527.686 75.1795V72.5949C527.686 70.7761 527.207 69.1966 526.247 67.8564C525.384 66.4205 524.137 65.3197 522.506 64.5538C520.875 63.788 518.956 63.4051 516.749 63.4051C513.967 63.4051 511.616 63.9795 509.697 65.1282C507.778 66.2769 506.291 67.9043 505.236 70.0103C504.276 72.1162 503.797 74.653 503.797 77.6205C503.797 81.0667 504.516 84.082 505.955 86.6667C507.491 89.2513 509.697 91.2615 512.575 92.6974C515.55 94.1333 519.196 94.8513 523.513 94.8513C526.391 94.8513 528.838 94.5162 530.853 93.8462C532.963 93.0803 535.17 91.8838 537.473 90.2564L550.857 109.067C547.307 111.843 543.805 113.997 540.351 115.528C536.993 117.06 533.635 118.161 530.277 118.831C527.015 119.501 523.657 119.836 520.203 119.836Z" fill="white"/>
<path d="M567.254 118.4V41.5795H594.309L596.036 67.1385L589.56 63.1179C590.808 58.7145 592.774 54.7897 595.461 51.3436C598.147 47.8017 601.361 45.0256 605.103 43.0154C608.941 41.0051 613.018 40 617.336 40C619.063 40 620.694 40.1436 622.229 40.4308C623.764 40.6222 625.251 40.9094 626.69 41.2923L618.631 73.6C617.671 72.9299 616.136 72.3077 614.026 71.7333C612.011 71.159 609.804 70.8718 607.406 70.8718C605.679 70.8718 604.096 71.159 602.656 71.7333C601.313 72.212 600.162 72.9778 599.203 74.0308C598.339 75.0838 597.667 76.3282 597.188 77.7641C596.708 79.2 596.468 80.8752 596.468 82.7897V118.4H567.254Z" fill="white"/>
<path d="M664.563 119.836C656.216 119.836 648.924 118.591 642.688 116.103C636.548 113.518 631.751 110.311 628.297 106.482L645.279 91.9795C648.349 94.6598 651.851 96.6701 655.784 98.0103C659.814 99.2547 663.172 99.8769 665.858 99.8769C666.818 99.8769 667.633 99.8291 668.305 99.7333C669.072 99.5419 669.648 99.3026 670.032 99.0154C670.511 98.6325 670.847 98.2496 671.039 97.8667C671.327 97.4838 671.471 97.0051 671.471 96.4308C671.471 94.9949 670.703 93.9419 669.168 93.2718C668.305 92.8889 666.866 92.4103 664.851 91.8359C662.932 91.2615 660.389 90.5915 657.223 89.8256C653.482 88.8684 650.028 87.6718 646.862 86.2359C643.791 84.8 641.153 83.1248 638.946 81.2103C636.644 79.1043 634.821 76.7111 633.478 74.0308C632.23 71.3504 631.607 68.335 631.607 64.9846C631.607 61.0598 632.518 57.5658 634.341 54.5026C636.164 51.4393 638.658 48.8547 641.825 46.7487C644.991 44.547 648.541 42.8718 652.474 41.7231C656.408 40.5744 660.437 40 664.563 40C669.264 40 673.629 40.4786 677.659 41.4359C681.785 42.2974 685.622 43.5897 689.172 45.3128C692.818 46.9402 696.128 48.9026 699.102 51.2L684.279 67.7128C682.648 66.3726 680.729 65.0803 678.523 63.8359C676.412 62.5915 674.157 61.5863 671.759 60.8205C669.456 59.959 667.297 59.5282 665.282 59.5282C664.227 59.5282 663.316 59.6239 662.548 59.8154C661.877 59.9111 661.301 60.1504 660.821 60.5333C660.341 60.8205 659.958 61.2034 659.67 61.682C659.478 62.065 659.382 62.5436 659.382 63.1179C659.382 63.8838 659.622 64.6017 660.102 65.2718C660.581 65.9419 661.349 66.5162 662.404 66.9949C663.268 67.3778 664.707 67.9043 666.722 68.5744C668.832 69.2444 671.903 70.1538 675.932 71.3026C680.25 72.547 684.039 73.9829 687.301 75.6103C690.659 77.2376 693.346 79.1521 695.36 81.3538C696.704 82.8855 697.759 84.6085 698.527 86.5231C699.294 88.4376 699.678 90.4957 699.678 92.6974C699.678 97.9624 698.143 102.653 695.073 106.769C692.098 110.79 687.973 113.997 682.696 116.39C677.419 118.687 671.375 119.836 664.563 119.836Z" fill="white"/>
<path d="M748.441 119.836C739.518 119.836 731.843 118.113 725.415 114.667C718.987 111.221 714.046 106.53 710.592 100.595C707.138 94.5641 705.411 87.6718 705.411 79.9179C705.411 74.1744 706.37 68.8615 708.289 63.9795C710.208 59.0974 712.894 54.8855 716.348 51.3436C719.898 47.706 724.024 44.9299 728.725 43.0154C733.522 41.0051 738.751 40 744.411 40C750.072 40 755.205 41.0051 759.81 43.0154C764.511 44.9299 768.541 47.706 771.899 51.3436C775.257 54.8855 777.799 59.0974 779.526 63.9795C781.349 68.8615 782.165 74.1744 781.973 79.9179L781.829 85.9487H721.529L718.219 72.3077H758.659L755.924 75.1795V72.5949C755.924 70.7761 755.445 69.1966 754.485 67.8564C753.622 66.4205 752.375 65.3197 750.744 64.5538C749.113 63.788 747.194 63.4051 744.987 63.4051C742.205 63.4051 739.854 63.9795 737.935 65.1282C736.016 66.2769 734.529 67.9043 733.474 70.0103C732.515 72.1162 732.035 74.653 732.035 77.6205C732.035 81.0667 732.754 84.082 734.194 86.6667C735.729 89.2513 737.935 91.2615 740.814 92.6974C743.788 94.1333 747.434 94.8513 751.751 94.8513C754.629 94.8513 757.076 94.5162 759.091 93.8462C761.201 93.0803 763.408 91.8838 765.711 90.2564L779.095 109.067C775.545 111.843 772.043 113.997 768.589 115.528C765.231 117.06 761.873 118.161 758.515 118.831C755.253 119.501 751.895 119.836 748.441 119.836Z" fill="white"/>
<path d="M0 0V120H33.7897V34.0364H48.9517V120H82.7414V34.0364H97.9034V120H131.693V27.9273L103.968 0H0ZM149.021 0V120H259.487V0H149.021ZM213.135 85.9636H195.807V34.0364H213.135V85.9636ZM276.815 0V120H344.395L372.12 92.0727V27.9273L344.395 0H276.815ZM331.832 85.9636H314.504V34.0364H331.832V85.9636Z" fill="white"/>
</g>
<defs>
<linearGradient id="paint0_linear_2497_1857" x1="186.06" y1="-4.07125" x2="186.06" y2="180.659" gradientUnits="userSpaceOnUse">
<stop offset="0.38" stop-color="#FFC527"/>
<stop offset="1" stop-color="#FF8A73"/>
</linearGradient>
</defs>
</svg>
