<svg width="51" height="67" viewBox="0 0 51 67" fill="none" xmlns="http://www.w3.org/2000/svg">
<ellipse cx="28" cy="59.5" rx="14" ry="7.5" fill="url(#paint0_radial_48_1915)"/>
<path d="M12.4462 10.4987L12.4462 10.4987C21.0363 1.83376 34.9639 1.83375 43.5541 10.4987C52.1487 19.1684 52.1486 33.2209 43.5541 41.8903L27.9999 57.5799L12.4462 41.902C12.4461 41.9019 12.4461 41.9018 12.446 41.9018C3.85126 33.2321 3.85134 19.1684 12.4462 10.4987ZM34.0851 32.326L34.0851 32.326C37.438 28.9439 37.4381 23.4568 34.0852 20.0748C30.7274 16.6874 25.2732 16.6875 21.9152 20.0747C18.5619 23.4569 18.5619 28.9436 21.9151 32.326C25.2729 35.7133 30.7271 35.7133 34.0851 32.326Z" fill="#AC58FF" stroke="white" stroke-width="2"/>
<circle cx="28" cy="26" r="14" fill="white"/>
<path d="M24.991 31L24.529 29.852L27.385 26.73C27.5437 26.5527 27.7164 26.352 27.903 26.128C28.0897 25.904 28.2717 25.6753 28.449 25.442C28.6264 25.1993 28.7664 24.966 28.869 24.742C28.981 24.518 29.037 24.3127 29.037 24.126C29.037 23.9393 28.995 23.776 28.911 23.636C28.827 23.496 28.7057 23.3887 28.547 23.314C28.3884 23.23 28.1877 23.188 27.945 23.188C27.7304 23.188 27.525 23.244 27.329 23.356C27.133 23.4587 26.9464 23.622 26.769 23.846C26.601 24.07 26.4424 24.3453 26.293 24.672L24.529 23.72C24.725 23.1787 25.0004 22.7027 25.355 22.292C25.719 21.872 26.1437 21.55 26.629 21.326C27.1144 21.0927 27.6324 20.976 28.183 20.976C28.7617 20.9853 29.2844 21.1113 29.751 21.354C30.2177 21.5873 30.5864 21.9187 30.857 22.348C31.137 22.768 31.277 23.2627 31.277 23.832C31.277 24.028 31.2537 24.2333 31.207 24.448C31.1604 24.6627 31.0904 24.8867 30.997 25.12C30.9037 25.344 30.7777 25.5867 30.619 25.848C30.4697 26.1 30.2877 26.366 30.073 26.646C29.8584 26.926 29.6064 27.2247 29.317 27.542L27.091 29.964L26.811 28.9H31.711V31H24.991Z" fill="#1A203B"/>
<ellipse cx="23" cy="56.5" rx="14" ry="7.5" fill="url(#paint1_radial_48_1915)"/>
<path d="M7.44622 7.49874L7.44623 7.49873C16.0363 -1.16624 29.9639 -1.16625 38.5541 7.49874C47.1487 16.1684 47.1486 30.2209 38.5541 38.8903L22.9999 54.5799L7.44622 38.902C7.44614 38.9019 7.44605 38.9018 7.44597 38.9018C-1.14874 30.2321 -1.14866 16.1684 7.44622 7.49874ZM29.0851 29.326L29.0851 29.326C32.438 25.9439 32.4381 20.4568 29.0852 17.0748C25.7274 13.6874 20.2732 13.6875 16.9152 17.0747C13.5619 20.4569 13.5619 25.9436 16.9151 29.326C20.2729 32.7133 25.7271 32.7133 29.0851 29.326Z" fill="#AC58FF" stroke="white" stroke-width="2"/>
<circle cx="23" cy="23" r="14" fill="white"/>
<defs>
<radialGradient id="paint0_radial_48_1915" cx="0" cy="0" r="1" gradientUnits="userSpaceOnUse" gradientTransform="translate(28 59.5) rotate(90) scale(7.5 14)">
<stop stop-color="#46464A"/>
<stop offset="1" stop-color="#44454A" stop-opacity="0"/>
</radialGradient>
<radialGradient id="paint1_radial_48_1915" cx="0" cy="0" r="1" gradientUnits="userSpaceOnUse" gradientTransform="translate(23 56.5) rotate(90) scale(7.5 14)">
<stop stop-color="#46464A"/>
<stop offset="1" stop-color="#44454A" stop-opacity="0"/>
</radialGradient>
</defs>
</svg>
