<svg width="27" height="20" viewBox="0 0 27 20" fill="none" xmlns="http://www.w3.org/2000/svg">
<mask id="path-1-outside-1_52_2177" maskUnits="userSpaceOnUse" x="-0.331665" y="0.5" width="27" height="20" fill="black">
<rect fill="white" x="-0.331665" y="0.5" width="27" height="20"/>
<path d="M14.2696 15.5728C13.8697 16.0546 13.1304 16.0546 12.7306 15.5728L4.90074 6.13864C4.35987 5.48695 4.82334 4.5 5.67024 4.5H21.3299C22.1768 4.5 22.6402 5.48695 22.0994 6.13864L14.2696 15.5728Z"/>
</mask>
<path d="M14.2696 15.5728C13.8697 16.0546 13.1304 16.0546 12.7306 15.5728L4.90074 6.13864C4.35987 5.48695 4.82334 4.5 5.67024 4.5H21.3299C22.1768 4.5 22.6402 5.48695 22.0994 6.13864L14.2696 15.5728Z" fill="white"/>
<path d="M22.0994 6.13864L25.1774 8.69321L22.0994 6.13864ZM4.90074 6.13864L7.97875 3.58407L4.90074 6.13864ZM12.7306 15.5728L9.65254 18.1274L12.7306 15.5728ZM14.2696 15.5728L17.3476 18.1274L14.2696 15.5728ZM15.8086 13.0183L7.97875 3.58407L1.82273 8.69321L9.65254 18.1274L15.8086 13.0183ZM5.67024 8.5H21.3299V0.5H5.67024V8.5ZM19.0214 3.58407L11.1915 13.0183L17.3476 18.1274L25.1774 8.69321L19.0214 3.58407ZM21.3299 8.5C18.7892 8.5 17.3988 5.53916 19.0214 3.58407L25.1774 8.69321C27.8817 5.43474 25.5644 0.5 21.3299 0.5V8.5ZM7.97875 3.58407C9.60136 5.53915 8.21093 8.5 5.67024 8.5V0.5C1.43576 0.5 -0.88161 5.43475 1.82273 8.69321L7.97875 3.58407ZM9.65254 18.1274C11.6519 20.5364 15.3482 20.5364 17.3476 18.1274L11.1915 13.0183C12.3912 11.5728 14.609 11.5728 15.8086 13.0183L9.65254 18.1274Z" fill="#AC58FF" mask="url(#path-1-outside-1_52_2177)"/>
</svg>
