<svg width="120" height="120" viewBox="0 0 120 120" fill="none" xmlns="http://www.w3.org/2000/svg">
<g clip-path="url(#clip0_15_574)">
<path d="M98.3139 88.9359C95.7974 85.1513 91.7856 84.566 88.4382 85.7566C91.0119 90.5726 94.33 95.167 99.8483 96.6893C102.716 97.5038 105.491 97.287 108.188 96.6413C107.5 93.3021 102.305 94.9395 98.3139 88.9359Z" fill="#F7E266"/>
<path d="M84.8207 88.0038C84.238 88.5766 83.7423 89.2172 83.365 89.9077C80.7566 94.6786 82.5332 100.618 87.2807 103.269C91.0157 105.355 97.4132 104.716 102.16 102.963C94.3996 101.146 87.3369 95.4811 84.8207 88.0038Z" fill="#E58BBD"/>
<path d="M99.8481 96.6896C94.3297 95.1671 91.0117 90.5726 88.438 85.7569C87.0725 86.2425 85.8182 87.0235 84.8204 88.0041C87.3367 95.4814 94.3993 101.146 102.159 102.964C105.499 101.73 108.022 99.9457 108.222 98.1696C108.291 97.5638 108.275 97.0636 108.188 96.642C105.491 97.2872 102.716 97.504 99.8481 96.6896Z" fill="#84EAC4"/>
<path d="M86.8245 117.643V110.675C86.8245 96.4413 75.2855 84.9021 61.0512 84.9021C46.8172 84.9021 35.278 96.4411 35.278 110.675V117.643H86.8245Z" fill="#B2E7F1"/>
<path d="M78.2553 117.643V111.06C78.2553 101.558 70.5528 93.8555 61.0512 93.8555C51.5497 93.8555 43.8472 101.558 43.8472 111.06V117.643H78.2553Z" fill="#B2E7F1"/>
<path d="M62.8564 93.9502C67.8326 96.1882 71.3328 101.5 71.3328 107.699V109.191C71.3328 111.512 69.4507 113.394 67.129 113.394H43.8469V117.643H78.255V111.06C78.2553 102.168 71.5093 94.8527 62.8564 93.9502Z" fill="#A7ADF1"/>
<path d="M104.512 80.6838C107.845 77.3511 107.845 71.9477 104.512 68.615C101.179 65.2823 95.7757 65.2823 92.443 68.615C89.1103 71.9477 89.1103 77.3511 92.443 80.6838C95.7757 84.0165 101.179 84.0165 104.512 80.6838Z" fill="#F1C7B6"/>
<path d="M31.4326 77.9657C33.2757 73.6289 31.2542 68.6191 26.9175 66.776C22.5807 64.9328 17.5709 66.9543 15.7278 71.2911C13.8847 75.6279 15.9062 80.6377 20.2429 82.4808C24.5797 84.3239 29.5895 82.3024 31.4326 77.9657Z" fill="#F1C7B6"/>
<path d="M68.3244 95.7399H53.7781C35.7024 95.7399 21.0493 81.0865 21.0493 63.011C21.0493 44.9353 35.7027 30.2822 53.7781 30.2822H68.3244C86.4001 30.2822 101.053 44.9353 101.053 63.011C101.053 81.0865 86.4001 95.7399 68.3244 95.7399Z" fill="#F1C7B6"/>
<path d="M68.3244 30.5791H64.1274C78.7817 30.5791 90.6613 42.4587 90.6613 57.1127V59.366C90.6613 74.0201 78.7817 85.8998 64.1274 85.8998H47.5829C33.5593 85.8998 22.0782 75.0201 21.1159 61.2412C21.0732 61.9249 21.0491 62.6135 21.0491 63.308C21.0491 81.3837 35.7024 96.037 53.7781 96.037H68.3244C86.4001 96.037 101.053 81.3837 101.053 63.308C101.053 45.2323 86.4001 30.5791 68.3244 30.5791Z" fill="#E795B6"/>
<path d="M100.897 24.2077C102.773 24.8937 104.191 27.8196 103.971 33.5009C103.729 39.7111 95.9939 46.5827 95.9939 46.5827L91.0256 41.9295C91.0256 41.9295 88.9071 34.4754 92.6637 29.6337C96.2041 25.0709 98.9925 23.5109 100.897 24.2077Z" fill="#B2E7F1"/>
<path d="M21.2051 24.2077C19.3296 24.8937 17.911 27.8196 18.1315 33.5009C18.3725 39.7111 26.1082 46.5827 26.1082 46.5827L31.0765 41.9295C31.0765 41.9295 33.195 34.4754 29.4385 29.6337C25.898 25.0709 23.1096 23.5109 21.2051 24.2077Z" fill="#B2E7F1"/>
<path d="M68.7261 27.6799H52.729C32.8505 27.6799 16.7358 43.7946 16.7358 63.6731C16.7358 68.1738 21.155 71.9395 21.3331 71.6224C27.4993 60.6511 39.2476 53.2383 52.729 53.2383H68.7261C82.1815 53.2383 93.9106 60.6225 100.086 71.5589C100.969 73.1213 104.72 68.1738 104.72 63.6731C104.72 43.7946 88.6046 27.6799 68.7261 27.6799Z" fill="#B2E7F1"/>
<path d="M69.0498 27.1547H63.1152C80.7247 27.1547 94.9998 38.9866 94.9998 53.5821C94.9613 55.8813 92.776 55.1592 91.7417 54.082C85.6609 47.7478 75.0346 45.9204 63.1149 45.9204H48.9437C37.0011 45.9204 28.6091 53.1886 21.1316 59.4188C19.4103 60.8529 18.193 59.3091 17.5602 57.1444C17.2323 59.097 17.0591 61.102 17.0591 63.1479C17.0591 67.6488 21.4782 71.4143 21.6563 71.0972C27.8225 60.1259 39.5708 52.7131 53.0523 52.7131H69.0495C82.505 52.7131 94.2341 60.0973 100.41 71.0337C101.292 72.596 105.043 67.6486 105.043 63.1479C105.043 43.2694 88.9283 27.1547 69.0498 27.1547Z" fill="#A7ADF1"/>
<path d="M59.0083 16.485L54.1028 42.2543C54.1028 49.0069 67.6133 49.0069 67.6133 42.2543L62.7079 16.485C62.3193 14.4436 59.3968 14.4436 59.0083 16.485Z" fill="#F0C4DB"/>
<path d="M62.7079 16.485C62.4486 15.124 61.0637 14.6716 60.0538 15.1256C60.4468 15.3045 60.7632 15.7252 60.805 16.3777L62.1634 37.5429C61.8041 41.5917 56.8686 42.2137 54.5228 40.047L54.1025 42.2543C54.1025 49.0069 67.6131 49.0069 67.6131 42.2543L62.7079 16.485Z" fill="#E69FD5"/>
<path d="M48.6971 53.6173C45.0022 57.859 45.3418 60.8051 47.5372 62.4002C49.6081 63.9049 52.5908 63.668 56.0239 60.0757C56.0283 60.1528 56.0347 60.2269 56.0401 60.3024C57.713 55.856 58.7539 51.2871 60.8237 46.9786C60.822 46.9788 60.8204 46.9788 60.8187 46.9791C58.5406 45.5599 52.3397 49.4356 48.6971 53.6173Z" fill="#E58BBD"/>
<path d="M61.2884 46.976C61.2174 46.9673 61.1461 46.9601 61.0742 46.9601C60.9903 46.9601 60.9068 46.9669 60.8236 46.9786C58.7539 51.2869 57.7132 55.8558 56.04 60.3023C56.3672 64.8009 58.4954 66.5888 61.0739 66.5888C63.6872 66.5888 65.8386 64.7541 66.121 60.1212C66.1608 60.1624 66.2002 60.2011 66.2398 60.2416C64.8382 55.7468 63.6628 51.1308 61.3929 46.9219C61.3582 46.9399 61.3214 46.9556 61.2884 46.976Z" fill="#84EAC4"/>
<path d="M73.4051 53.6173C69.818 49.4993 63.7529 45.682 61.3932 46.9219C63.6631 51.131 64.8387 55.747 66.2401 60.2416C69.605 63.6738 72.5267 63.881 74.5651 62.4002C76.7602 60.8051 77.1001 57.8587 73.4051 53.6173Z" fill="#F7E266"/>
<path d="M62.1798 108.648H60.8181C59.3073 108.648 58.1345 107.355 58.3105 105.883L59.0696 99.533C59.2119 98.3438 60.2394 97.4473 61.4605 97.4473C62.6708 97.4473 63.6929 98.3285 63.8478 99.5056L64.6838 105.855C64.8786 107.336 63.7025 108.648 62.1798 108.648Z" fill="#8BB6EF"/>
<path d="M105.861 91.796C103.985 91.0563 102.045 90.2913 100.276 87.6309C99.7498 86.8387 99.1559 86.141 98.5055 85.5384C104.507 85.533 109.388 80.6494 109.388 74.6466C109.388 71.8041 108.289 69.2156 106.499 67.2745C106.863 66.0729 107.076 64.8363 107.076 63.6731C107.076 56.4848 105.086 49.7531 101.632 43.9966C103.858 41.1996 106.178 37.403 106.326 33.592C106.656 25.0915 103.574 22.6767 101.707 21.994C98.5542 20.8413 94.8858 22.9254 90.802 28.1885C90.0654 29.138 89.5163 30.1594 89.1108 31.2035C83.2017 27.4802 76.2117 25.3228 68.7265 25.3228H65.8301L64.0974 16.2202C63.7969 14.6419 62.4649 13.5396 60.8583 13.5396C59.2519 13.5396 57.9199 14.6419 57.6195 16.2202L55.8867 25.3228H52.7297C45.4617 25.3228 38.6595 27.3551 32.8615 30.8813C32.4703 29.9496 31.9617 29.04 31.3013 28.1885C27.2173 22.9249 23.5484 20.8409 20.3963 21.994C18.5295 22.677 15.4472 25.0915 15.7772 33.592C15.9171 37.1958 17.9993 40.7866 20.1085 43.5321C16.4789 49.3894 14.3799 56.2903 14.3799 63.6731C14.3799 65.081 14.7124 66.4451 15.2306 67.6962C13.6617 69.5836 12.7153 72.0061 12.7153 74.6466C12.7153 80.6524 17.6013 85.5387 23.6072 85.5387C24.6321 85.5387 25.6224 85.392 26.5629 85.1255C29.7005 88.98 33.6385 92.1579 38.1218 94.4032C34.8497 98.9998 32.9217 104.616 32.9217 110.675V117.643C32.9217 118.945 33.9769 120 35.2786 120C36.5803 120 37.6355 118.945 37.6355 117.643V110.675C37.6355 105.247 39.4936 100.247 42.6049 96.2712C44.3759 96.8679 46.2099 97.3261 48.0938 97.6341C44.606 101.019 42.4338 105.751 42.4338 110.983V118.432C42.4338 119.213 43.0671 119.846 43.8481 119.846C44.629 119.846 45.2621 119.212 45.2621 118.432V110.983C45.2621 105.639 47.9311 100.909 52.0055 98.0503C52.5931 98.0798 53.1842 98.0963 53.779 98.0963H58.0573C57.8574 98.4839 57.7207 98.9105 57.6663 99.3647L56.9072 105.715C56.7767 106.807 57.1226 107.908 57.8567 108.735C58.6048 109.578 59.6843 110.061 60.8189 110.061H62.1806C63.3242 110.061 64.4093 109.571 65.1581 108.718C65.8929 107.88 66.2313 106.769 66.0865 105.669L65.2505 99.3204C65.1928 98.8826 65.0571 98.4715 64.8628 98.0963H68.3253C68.9201 98.0963 69.511 98.0796 70.0985 98.0503C74.1729 100.908 76.842 105.639 76.842 110.983V118.432C76.842 119.213 77.4753 119.846 78.256 119.846C79.0369 119.846 79.6702 119.212 79.6702 118.432V110.983C79.6702 105.75 77.497 101.019 74.0088 97.6341C75.893 97.3259 77.7274 96.8684 79.4986 96.2716C82.6099 100.247 84.4683 105.247 84.4683 110.675V117.643C84.4683 118.945 85.5235 120 86.8252 120C88.1269 120 89.182 118.945 89.182 117.643V110.675C89.182 109.219 89.0688 107.788 88.8544 106.391C90.2745 106.76 91.8331 106.93 93.4449 106.93C97.624 106.93 102.152 105.795 105.498 104.075C108.575 102.494 110.327 100.543 110.565 98.433C111.08 93.8543 107.94 92.6156 105.861 91.796ZM63.031 106.853C62.9065 106.995 62.6304 107.233 62.1797 107.233H60.818C60.3708 107.233 60.0954 106.998 59.971 106.858C59.8547 106.727 59.667 106.448 59.7146 106.051L60.4737 99.7008C60.5311 99.2222 60.9551 98.8613 61.4604 98.8613C61.9599 98.8613 62.3834 99.2175 62.4457 99.69L63.2817 106.039C63.3342 106.439 63.147 106.721 63.031 106.853ZM102.164 100.43C101.987 100.504 101.806 100.576 101.623 100.646C101.443 100.605 101.261 100.564 101.083 100.523C96.2956 99.4392 92.4251 98.5601 88.2774 91.8539C88.5956 91.6329 88.9109 91.4077 89.2214 91.1766C93.1849 95.9433 99.102 98.9219 104.486 98.9219C104.631 98.9219 104.774 98.9152 104.918 98.9107C104.344 99.3497 103.47 99.8822 102.164 100.43ZM103.857 96.0724C99.5037 95.8411 94.6817 93.2836 91.4229 89.396C92.0161 88.8759 92.5924 88.3369 93.1495 87.7786C94.2366 88.0929 95.3923 88.7988 96.3511 90.2409C98.8275 93.9654 101.794 95.254 103.857 96.0724ZM104.674 74.6468C104.674 78.0389 101.926 80.8001 98.5395 80.824C99.8035 78.6877 100.847 76.406 101.64 74.0114C102.478 73.6959 103.321 72.9806 104.085 72.019C104.462 72.8168 104.674 73.7072 104.674 74.6468ZM94.526 31.0784C97.8839 26.7509 99.7681 26.3039 100.088 26.4211C100.666 26.6327 101.802 28.6195 101.616 33.4095C101.535 35.4834 100.285 37.8368 98.8008 39.9047C97.1177 37.7796 95.2153 35.8355 93.1268 34.1086C93.387 33.0333 93.8241 31.983 94.526 31.0784ZM68.7263 30.0368C87.2735 30.0368 102.363 45.1261 102.363 63.6734C102.363 65.3639 101.623 67.1742 100.907 68.3686C94.6341 58.7107 84.3324 52.3903 72.9579 51.1223C71.127 49.3962 68.9339 47.8516 66.8613 46.7829C68.1731 45.7057 69.0272 44.1909 69.0272 42.2538C69.0272 42.165 69.0188 42.0766 69.0021 41.9895L66.7268 30.0366L68.7263 30.0368ZM49.7635 54.5461C52.2031 51.7453 55.9186 49.3481 58.4417 48.4638C58.4438 48.4643 58.4459 48.4648 58.448 48.4652C56.6332 52.552 55.0287 56.385 54.7113 59.3944C53.1825 60.9108 50.5695 62.8549 48.3685 61.2562C47.7431 60.802 47.4028 60.2597 47.3278 59.599C47.1818 58.3111 48.0467 56.5167 49.7635 54.5461ZM65.3546 37.9509L55.7025 41.411L56.7251 36.0391L64.4726 33.3183L65.3546 37.9509ZM63.9378 30.5084L57.3366 32.8268L58.4395 27.0333L62.9464 25.2998L63.9378 30.5084ZM56.2465 44.2205L65.8899 40.7634L66.1969 42.3759C66.1399 43.9345 64.9938 44.947 63.5103 45.4718C63.0867 45.3703 62.6845 45.3038 62.3133 45.2801C61.8853 45.2529 60.2023 45.2585 59.8172 45.282C59.3761 45.3089 58.8928 45.3954 58.38 45.5306C57.5234 45.2543 56.7668 44.8209 56.2465 44.2205ZM57.4772 60.4153C57.4793 57.8491 59.1973 53.7485 61.0348 49.6088C61.0964 49.7503 61.1583 49.8923 61.2195 50.0325C62.8894 53.8638 64.7824 58.2061 64.6528 60.5027C64.6495 60.5627 64.6512 60.6216 64.6552 60.6799C64.4154 62.8622 63.5721 65.1743 61.0746 65.1743C58.5061 65.1743 57.6856 62.7319 57.4739 60.4875C57.4746 60.4636 57.477 60.4399 57.4772 60.4153ZM67.4424 59.4459C67.159 56.5833 65.5275 52.8384 63.8119 48.9026C63.7439 48.7465 63.6753 48.5888 63.6066 48.4313C66.1275 49.2825 69.8342 51.6708 72.3387 54.5459C74.0553 56.5165 74.9203 58.3111 74.7743 59.5985C74.6993 60.2595 74.359 60.8018 73.7337 61.256C71.551 62.8416 68.9635 60.9406 67.4424 59.4459ZM60.8578 16.368C61.1154 16.368 61.2703 16.4963 61.3186 16.7494L62.4089 22.4766L59.0621 23.7638L60.3973 16.7494C60.4456 16.4965 60.6003 16.368 60.8578 16.368ZM20.4865 33.4095C20.3004 28.6198 21.4357 26.633 22.0146 26.4213C22.336 26.3051 24.2182 26.7504 27.5761 31.0786C28.1855 31.864 28.5949 32.7556 28.8642 33.6764C26.7073 35.396 24.7392 37.3427 22.9964 39.4805C21.6495 37.5225 20.5617 35.3484 20.4865 33.4095ZM52.729 30.0368H54.9888L52.7135 41.9897C52.6969 42.0769 52.6885 42.1655 52.6885 42.2541C52.6885 44.2666 53.6095 45.8245 55.0092 46.9081C53.0356 47.9534 50.9712 49.4161 49.2263 51.0457C37.7135 52.1048 27.2344 58.3364 20.8034 67.9809C19.9535 66.8632 19.0927 65.291 19.0927 63.6734C19.0927 45.1261 34.1817 30.0368 52.729 30.0368ZM17.4281 74.6468C17.4281 73.6976 17.6435 72.7978 18.0279 71.9934C18.9028 72.9199 19.7651 73.5663 20.4 73.826C21.1999 76.2888 22.2656 78.6323 23.5624 80.824C20.176 80.8001 17.4281 78.0387 17.4281 74.6468ZM24.4723 70.9854C29.2481 63.6042 36.6985 58.4395 45.124 56.4771C44.599 57.6905 44.3953 58.8401 44.5174 59.9175C44.6822 61.3695 45.439 62.6238 46.7058 63.5442C47.9246 64.4297 50.9461 65.8997 55.0235 62.8636C56.2812 67.586 59.8643 68.003 61.0739 68.003C62.2791 68.003 65.8512 67.5888 67.1161 62.8924C71.175 65.891 74.1832 64.4255 75.3961 63.5442C76.6631 62.6236 77.4197 61.3695 77.5845 59.9175C77.7007 58.8926 77.5191 57.8016 77.0494 56.6534C85.4433 58.8054 92.8106 64.152 97.429 71.6948C93.6842 84.2238 82.0545 93.383 68.3239 93.383H53.7776C39.7899 93.383 27.9835 83.8763 24.4723 70.9854ZM88.4295 101.211C87.9954 100.969 87.5946 100.689 87.2276 100.38C86.5142 98.573 85.6186 96.8573 84.5642 95.2549C84.5299 94.8762 84.5241 94.4944 84.548 94.1126C85.0024 93.8745 85.451 93.6267 85.8935 93.3696C89.2062 98.6977 92.5099 100.857 95.8955 102.056C93.0342 102.406 90.2339 102.219 88.4295 101.211Z" fill="#440B29"/>
<path d="M45.1277 64.4508C44.9611 64.3657 43.4442 63.6197 41.5249 63.6197C39.6056 63.6197 38.0888 64.3657 37.9221 64.4508C37.2291 64.8045 36.9556 65.6498 37.3055 66.3448C37.6554 67.0397 38.5045 67.3191 39.2011 66.9734C39.2116 66.968 40.2724 66.4481 41.5249 66.4481C42.7772 66.4481 43.838 66.968 43.842 66.9701C44.048 67.0751 44.2673 67.125 44.4837 67.125C44.9981 67.125 45.4943 66.8433 45.7444 66.3534C46.0992 65.6576 45.8234 64.8059 45.1277 64.4508Z" fill="#440B29"/>
<path d="M78.2536 66.9734C78.2641 66.968 79.3249 66.4481 80.5772 66.4481C81.8294 66.4481 82.8902 66.968 82.8944 66.9701C83.1002 67.0751 83.3198 67.125 83.5362 67.125C84.0506 67.125 84.547 66.8433 84.7969 66.3534C85.1519 65.6578 84.8758 64.8061 84.1802 64.451C84.0136 64.3659 82.4967 63.6199 80.5774 63.6199C78.6581 63.6199 77.1412 64.3659 76.9746 64.451C76.2818 64.8047 76.008 65.6501 76.3582 66.345C76.7076 67.0395 77.557 67.3191 78.2536 66.9734Z" fill="#440B29"/>
<path d="M61.0509 81.5923C63.8454 81.5923 66.1188 79.3188 66.1188 76.5244C66.1188 75.7434 65.4855 75.1102 64.7046 75.1102C63.9237 75.1102 63.2904 75.7434 63.2904 76.5244C63.2904 77.7593 62.2856 78.7641 61.0507 78.7641C59.8158 78.7641 58.8112 77.7595 58.8112 76.5244C58.8112 75.7434 58.178 75.1102 57.397 75.1102C56.6161 75.1102 55.983 75.7434 55.983 76.5244C55.9833 79.3191 58.2567 81.5923 61.0509 81.5923Z" fill="#440B29"/>
<path d="M86.342 48.8524C87.1229 48.8524 87.7559 48.2194 87.7559 47.4384V45.0827C87.7559 44.3018 87.1229 43.6688 86.342 43.6688C85.561 43.6688 84.9277 44.3018 84.9277 45.0827V47.4384C84.928 48.2194 85.561 48.8524 86.342 48.8524Z" fill="#440B29"/>
<path d="M92.3794 53.9548C93.1604 53.9548 93.7937 53.3215 93.7937 52.5405V50.1851C93.7937 49.4041 93.1604 48.7711 92.3794 48.7711C91.5985 48.7711 90.9655 49.4044 90.9655 50.1851V52.5405C90.9655 53.3215 91.5985 53.9548 92.3794 53.9548Z" fill="#440B29"/>
<path d="M42.1831 40.8968C41.2071 40.8968 40.2947 40.286 39.9567 39.3119C39.5299 38.0822 40.1808 36.7394 41.4106 36.3127C42.3464 35.9878 43.2919 35.7457 44.221 35.5927C45.5046 35.3822 46.7178 36.2508 46.9294 37.5352C47.141 38.8195 46.2713 40.0322 44.9869 40.2436C44.3222 40.353 43.6388 40.5288 42.9558 40.7658C42.7001 40.8544 42.4392 40.8968 42.1831 40.8968Z" fill="white"/>
<path d="M31.6699 48.6176C31.1519 48.6176 30.6309 48.4477 30.1957 48.0982C29.1808 47.2833 29.0189 45.7997 29.8338 44.7849C30.7528 43.6406 31.8 42.5529 33.0358 41.4591C34.0106 40.5963 35.5001 40.6873 36.3628 41.662C37.2255 42.6366 37.1346 44.1263 36.1601 44.989C35.1262 45.904 34.2593 46.8026 33.5093 47.7366C33.0436 48.3162 32.3597 48.6176 31.6699 48.6176Z" fill="white"/>
<path d="M36.0607 0.59667L38.0625 6.22565C38.1483 6.46659 38.318 6.65761 38.532 6.75417L43.5331 9.00745C44.2397 9.32573 44.2397 10.4514 43.5331 10.77L38.532 13.0232C38.3178 13.1198 38.1481 13.3108 38.0625 13.5517L36.0607 19.1807C35.7778 19.976 34.7778 19.976 34.4949 19.1807L32.4931 13.5517C32.4073 13.3108 32.2376 13.1198 32.0236 13.0232L27.0225 10.77C26.3159 10.4517 26.3159 9.32597 27.0225 9.00745L32.0236 6.75417C32.2378 6.65761 32.4075 6.46683 32.4931 6.22565L34.4949 0.59667C34.7778 -0.198564 35.7778 -0.198564 36.0607 0.59667Z" fill="#B2E7F1"/>
<path d="M93.5088 12.0191C93.9675 9.64848 92.4174 7.35485 90.0467 6.89615C87.6759 6.43745 85.3822 7.98737 84.9235 10.358C84.4648 12.7286 86.0149 15.0223 88.3857 15.481C90.7564 15.9397 93.0501 14.3897 93.5088 12.0191Z" fill="#8BB6EF"/>
<path d="M107.696 7.99758C107.696 9.01992 106.867 9.84867 105.845 9.84867C104.822 9.84867 103.994 9.01992 103.994 7.99758C103.994 6.97523 104.822 6.14648 105.845 6.14648C106.867 6.14648 107.696 6.97523 107.696 7.99758Z" fill="#8BB6EF"/>
<path d="M16.4769 95.2603L17.9619 99.4357C18.0254 99.6145 18.1512 99.7561 18.3101 99.8278L22.0198 101.499C22.5439 101.735 22.5439 102.57 22.0198 102.806L18.3101 104.478C18.1512 104.549 18.0254 104.691 17.9619 104.87L16.4769 109.045C16.2671 109.635 15.5251 109.635 15.3153 109.045L13.8303 104.87C13.7668 104.691 13.6409 104.549 13.482 104.478L9.77232 102.806C9.24826 102.57 9.24826 101.735 9.77232 101.499L13.482 99.8278C13.6409 99.7563 13.7668 99.6145 13.8303 99.4357L15.3153 95.2603C15.5251 94.6704 16.2671 94.6704 16.4769 95.2603Z" fill="#B2E7F1"/>
</g>
<defs>
<clipPath id="clip0_15_574">
<rect width="120" height="120" fill="white"/>
</clipPath>
</defs>
</svg>
