<?xml version="1.0" encoding="UTF-8"?>
<svg width="58px" height="36px" viewBox="0 0 58 36" version="1.1" xmlns="http://www.w3.org/2000/svg" xmlns:xlink="http://www.w3.org/1999/xlink">
    <title>Group 14</title>
    <defs>
        <polygon id="path-1" points="0 0 24.9830234 0 24.9830234 24.0743034 0 24.0743034"></polygon>
        <polygon id="path-3" points="0 36 58 36 58 0 0 0"></polygon>
    </defs>
    <g id="Desktop-Design-Concept-Approved" stroke="none" stroke-width="1" fill="none" fill-rule="evenodd">
        <g id="Journey---Turn-In" transform="translate(-1282.000000, -204.000000)">
            <g id="Nav---Customer-Options" transform="translate(0.000000, 136.000000)">
                <g id="Group-9" transform="translate(1084.000000, 32.000000)">
                    <g id="Group-14" transform="translate(198.000000, 36.000000)">
                        <polygon id="Fill-1" fill="#57616B" points="0 2.88512074 23.5449484 17.5135135 46 2.87841235 45.3479217 1.95265434 23.5294504 16.1729533 0.630768583 1.94594595"></polygon>
                        <g id="Group-13">
                            <g id="Group-4" transform="translate(33.016977, 11.925547)">
                                <mask id="mask-2" fill="white">
                                    <use xlink:href="#path-1"></use>
                                </mask>
                                <g id="Clip-3"></g>
                                <path d="M12.4915697,1.11827868 C6.24385071,1.11827868 1.16049514,6.01633929 1.16049514,12.0371517 C1.16049514,18.0579641 6.24385071,22.9560247 12.4915697,22.9560247 C18.7392888,22.9560247 23.8226443,18.0579641 23.8226443,12.0371517 C23.8226443,6.01633929 18.7392888,1.11827868 12.4915697,1.11827868 M12.4915697,24.0743034 C5.60364422,24.0743034 0,18.6745084 0,12.0371517 C0,5.40016774 5.60364422,0 12.4915697,0 C19.3794953,0 24.9831395,5.40016774 24.9831395,12.0371517 C24.9831395,18.6745084 19.3794953,24.0743034 12.4915697,24.0743034" id="Fill-2" fill="#57616B" mask="url(#mask-2)"></path>
                            </g>
                            <path d="M49.0656573,20.9879288 C48.7453607,20.9879288 48.4854098,20.7378071 48.4854098,20.4287895 C48.4854098,19.0331777 47.1082889,17.8973793 45.4155133,17.8973793 C43.7231245,17.8973793 42.3460036,19.0331777 42.3460036,20.4287895 C42.3460036,20.7378071 42.0860527,20.9879288 41.7657561,20.9879288 C41.4454594,20.9879288 41.1855085,20.7378071 41.1855085,20.4287895 C41.1855085,18.4166334 43.0833049,16.7791006 45.4155133,16.7791006 C47.7481085,16.7791006 49.6459049,18.4166334 49.6459049,20.4287895 C49.6459049,20.7378071 49.385954,20.9879288 49.0656573,20.9879288" id="Fill-5" fill="#57616B"></path>
                            <mask id="mask-4" fill="white">
                                <use xlink:href="#path-3"></use>
                            </mask>
                            <g id="Clip-8"></g>
                            <path d="M40.9264086,29.30412 L50.1771022,29.30412 L50.1771022,21.661058 L40.9264086,21.661058 L40.9264086,29.30412 Z M50.7573498,30.4223987 L40.346161,30.4223987 C40.0254775,30.4223987 39.7659135,30.1719043 39.7659135,29.8632594 L39.7659135,21.1019187 C39.7659135,20.792901 40.0254775,20.5427793 40.346161,20.5427793 L50.7573498,20.5427793 C51.0780333,20.5427793 51.3375974,20.792901 51.3375974,21.1019187 L51.3375974,29.8632594 C51.3375974,30.1719043 51.0780333,30.4223987 50.7573498,30.4223987 L50.7573498,30.4223987 Z" id="Fill-7" fill="#E72F2D" mask="url(#mask-4)"></path>
                            <path d="M46.490712,25.9177113 L47.0756016,28.4573221 L45.6257563,28.4573221 L44.1759111,28.4573221 L44.7608006,25.9177113 C44.1298781,25.6299409 43.6958529,25.0387442 43.6958529,24.3547304 C43.6958529,23.3877921 44.5600349,22.6038788 45.6257563,22.6038788 C46.6914777,22.6038788 47.5552729,23.3877921 47.5552729,24.3547304 C47.5552729,25.0387442 47.1216346,25.6299409 46.490712,25.9177113 L46.490712,25.9177113 Z M40.8158908,29.6091492 L50.3628975,29.6091492 L50.3628975,21.4513062 L40.8158908,21.4513062 L40.8158908,29.6091492 Z" id="Fill-9" fill="#EA2030" mask="url(#mask-4)"></path>
                            <polygon id="Fill-10" fill="#57616B" mask="url(#mask-4)" points="45.34364 12.0091947 46.3969827 12.0091947 46.3969827 3.91211158 45.34364 3.91211158"></polygon>
                            <path d="M4.1199125,29.5319134 C2.46040444,29.5319134 1.11036175,28.2309825 1.11036175,26.6322168 L1.11036175,3.91214886 L0.0574058265,3.91214886 L0.0574058265,26.6322168 C0.0574058265,28.7908674 1.87977004,30.5469377 4.1199125,30.5469377 L35.8629362,30.5469377 L34.385239,29.5319134 L4.1199125,29.5319134 Z" id="Fill-11" fill="#57616B" mask="url(#mask-4)"></path>
                            <path d="M45.3455354,3.91468362 L45.3455354,12.040842 L46.3988782,12.0844549 L46.3988782,3.91468362 C46.3988782,1.75603301 44.5761271,-3.72759559e-05 42.3359847,-3.72759559e-05 L4.12165324,-3.72759559e-05 C1.88151078,-3.72759559e-05 0.0591465692,1.75603301 0.0591465692,3.91468362 L0.0591465692,26.6347515 L1.11248933,26.6347515 L1.11248933,3.91468362 C1.11248933,2.31554511 2.46214518,1.01461425 4.12165324,1.01461425 L42.3359847,1.01461425 C43.9954927,1.01461425 45.3455354,2.31554511 45.3455354,3.91468362" id="Fill-12" fill="#57616B" mask="url(#mask-4)"></path>
                        </g>
                    </g>
                </g>
            </g>
        </g>
    </g>
</svg>