<?xml version="1.0" standalone="no"?>
<!DOCTYPE svg PUBLIC "-//W3C//DTD SVG 20010904//EN"
 "http://www.w3.org/TR/2001/REC-SVG-20010904/DTD/svg10.dtd">
<svg version="1.0" xmlns="http://www.w3.org/2000/svg"
 width="260.000000pt" height="260.000000pt" viewBox="0 0 260.000000 260.000000"
 preserveAspectRatio="xMidYMid meet">
<metadata>
Created by potrace 1.14, written by Peter Selinger 2001-2017
</metadata>
<g transform="translate(0.000000,260.000000) scale(0.100000,-0.100000)"
fill="#000000" stroke="none">
<path d="M1105 2509 c4 -6 -31 -10 -87 -11 -16 0 -28 -4 -28 -8 0 -6 -8 -8
-47 -11 -10 -1 -24 -7 -32 -13 -12 -9 -13 -8 -6 4 7 12 6 13 -6 3 -8 -7 -30
-15 -48 -18 -19 -3 -42 -10 -51 -15 -10 -5 -20 -6 -24 -3 -3 3 -6 1 -6 -5 0
-7 -3 -11 -7 -10 -9 1 -30 -6 -78 -27 -16 -8 -34 -13 -39 -13 -5 0 -13 -7 -18
-16 -5 -9 -13 -14 -17 -11 -5 2 -14 -2 -21 -10 -7 -8 -16 -12 -21 -9 -5 3 -12
-2 -15 -10 -3 -9 -10 -13 -15 -10 -5 3 -9 0 -9 -5 0 -6 -7 -11 -15 -11 -9 0
-18 -7 -21 -15 -4 -8 -10 -12 -15 -9 -5 3 -9 0 -9 -5 0 -6 -6 -11 -13 -11 -6
0 -32 -19 -57 -42 -25 -23 -48 -41 -53 -40 -4 1 -7 -5 -7 -14 0 -8 -4 -13 -9
-9 -5 3 -12 -4 -16 -15 -4 -11 -11 -18 -16 -15 -5 4 -9 -1 -9 -9 0 -9 -4 -16
-10 -16 -5 0 -10 -7 -10 -16 0 -8 -4 -13 -9 -10 -9 6 -26 -22 -23 -36 1 -5 -1
-7 -6 -5 -4 1 -8 -2 -9 -6 -1 -5 -10 -16 -20 -25 -10 -9 -19 -23 -21 -31 -1
-7 -9 -20 -17 -28 -14 -13 -17 -21 -14 -39 0 -4 -4 -10 -11 -14 -6 -4 -13 -16
-14 -26 -2 -10 -8 -18 -14 -17 -5 1 -9 -3 -9 -10 1 -35 -4 -58 -12 -53 -4 3
-8 -2 -8 -12 0 -38 -3 -53 -10 -49 -5 3 -9 -11 -10 -31 -3 -49 -8 -70 -16 -78
-12 -13 -8 -36 5 -28 10 6 10 4 2 -7 -5 -8 -11 -30 -13 -49 -2 -19 -7 -40 -12
-46 -12 -14 -10 -456 2 -448 5 3 9 0 9 -6 0 -7 14 -25 31 -41 17 -16 27 -29
22 -29 -5 0 -10 -7 -10 -15 0 -8 4 -12 9 -9 4 3 8 1 8 -5 0 -5 -5 -13 -12 -17
-8 -5 -6 -10 5 -19 11 -7 13 -16 6 -26 -7 -12 -9 -12 -9 0 0 8 -3 11 -7 8 -3
-4 2 -15 11 -26 11 -12 13 -21 7 -25 -6 -4 -8 -12 -5 -19 2 -7 5 -39 7 -72 1
-33 6 -66 10 -72 5 -7 4 -13 0 -13 -5 0 -9 -9 -9 -19 0 -16 3 -18 15 -8 12 10
13 9 6 -2 -11 -18 -17 -73 -7 -67 4 2 7 -36 6 -85 0 -48 3 -86 7 -84 4 3 6 -3
4 -12 -2 -10 -4 -18 -5 -18 -1 0 -3 -11 -6 -25 -3 -18 -1 -21 5 -11 6 10 9 -1
9 -35 -1 -124 4 -184 16 -177 6 4 4 -2 -4 -12 -9 -11 -10 -16 -3 -11 8 4 13 2
13 -4 0 -15 25 -40 40 -40 6 0 8 -5 5 -10 -9 -15 2159 -14 2188 2 31 16 47 34
47 52 0 9 4 16 9 16 5 0 9 34 8 75 0 46 4 80 11 87 7 7 12 17 12 22 0 6 -5 4
-10 -4 -8 -13 -10 -13 -10 1 0 9 3 19 7 23 10 10 13 37 3 31 -10 -6 -7 21 3
31 4 4 1 14 -6 22 -8 11 -8 14 0 9 8 -5 11 5 9 33 -2 23 1 43 6 46 4 3 3 14
-2 25 -8 13 -7 19 0 19 7 0 7 7 -1 21 -6 12 -7 19 -1 16 5 -4 9 6 8 21 0 15 3
38 7 52 6 17 5 21 -1 11 -8 -11 -10 -8 -9 12 1 14 5 24 8 22 3 -2 6 17 6 43 1
112 8 180 17 175 5 -4 6 -1 1 8 -12 18 -14 49 -3 49 4 0 7 3 7 8 -4 21 2 43 9
38 5 -3 18 7 30 23 19 26 21 42 22 228 0 132 -3 210 -11 229 -6 16 -13 47 -14
69 -1 22 -3 40 -5 40 -1 0 -7 50 -12 102 -1 12 -6 19 -12 16 -5 -4 -7 1 -3 10
3 9 2 19 -4 22 -5 4 -7 10 -4 15 3 5 1 11 -5 15 -6 4 -8 10 -5 15 3 5 1 11 -5
15 -6 4 -8 11 -5 16 4 5 1 9 -6 9 -7 0 -9 3 -6 7 4 3 2 12 -4 19 -6 8 -9 20
-5 29 3 8 0 14 -7 12 -7 -1 -11 4 -10 11 2 6 -4 12 -13 12 -8 0 -12 4 -9 10 3
5 -1 20 -10 33 -8 13 -12 27 -8 32 5 4 2 5 -4 1 -8 -4 -17 2 -25 18 -6 14 -16
26 -21 26 -6 0 -8 3 -4 6 3 3 -10 21 -29 40 -19 19 -34 39 -34 44 0 6 -7 10
-16 10 -8 0 -12 5 -9 10 3 6 -1 10 -9 10 -9 0 -16 7 -16 16 0 10 -5 14 -16 10
-8 -3 -13 -2 -10 3 6 10 -35 48 -70 63 -13 6 -24 18 -24 25 0 8 -5 11 -10 8
-6 -3 -10 -1 -10 5 0 6 -4 8 -10 5 -5 -3 -10 -1 -10 6 0 7 -3 9 -7 6 -3 -4
-12 2 -20 13 -8 11 -23 20 -33 20 -10 0 -20 5 -22 10 -2 6 -13 12 -26 13 -14
1 -21 6 -18 14 3 7 2 12 -2 11 -4 -1 -22 3 -40 9 -18 7 -34 12 -37 13 -3 0
-21 9 -41 20 -19 11 -32 15 -28 8 6 -10 4 -10 -9 0 -9 8 -20 11 -26 8 -5 -3
-11 -1 -13 5 -4 11 -21 15 -66 18 -7 1 -11 4 -9 9 3 4 -11 8 -31 8 -20 1 -38
7 -40 13 -3 8 -9 6 -18 -6 -11 -13 -14 -14 -12 -3 3 15 -6 17 -89 21 -24 1
-41 4 -39 8 6 9 -257 8 -271 -2 -6 -4 -14 -3 -18 3 -4 7 -13 6 -27 -1 -11 -6
-18 -7 -15 -2 3 5 -3 9 -13 9 -10 0 -17 -3 -15 -7z m321 -162 c4 -3 15 -2 25
4 15 8 17 6 12 -7 -5 -13 -3 -15 8 -8 18 11 39 14 39 5 0 -4 12 -6 28 -6 15 1
33 -4 41 -9 12 -9 13 -8 6 4 -7 12 -6 13 7 3 8 -7 18 -10 21 -6 4 3 7 1 7 -4
0 -6 8 -10 18 -8 9 1 23 -2 30 -8 6 -5 12 -7 12 -3 0 4 14 -1 31 -10 17 -8 28
-11 25 -5 -4 6 -2 11 3 11 6 0 11 -7 11 -16 0 -9 6 -14 13 -11 6 2 25 -2 40
-10 15 -8 33 -11 39 -7 6 4 8 3 5 -3 -8 -12 20 -26 34 -17 5 3 9 -2 9 -10 0
-9 7 -13 20 -11 13 3 20 -2 20 -12 0 -9 3 -14 6 -10 4 3 13 -1 21 -9 8 -8 19
-12 24 -9 5 4 9 -1 9 -9 0 -14 6 -18 26 -15 3 0 13 -8 22 -18 10 -10 26 -23
37 -30 11 -6 19 -16 17 -23 -1 -6 2 -9 6 -6 12 7 54 -29 45 -38 -3 -3 1 -6 10
-6 9 0 17 -6 17 -14 0 -8 5 -18 12 -22 7 -5 8 -3 3 7 -8 12 -6 12 8 0 9 -7 14
-17 11 -22 -3 -5 2 -9 11 -9 9 0 14 -4 11 -8 -3 -5 4 -14 14 -22 10 -8 17 -17
14 -22 -3 -4 -1 -8 5 -8 5 0 13 -9 16 -20 4 -11 11 -17 17 -14 6 4 8 2 5 -4
-6 -8 27 -86 43 -102 6 -6 12 -30 13 -47 0 -7 3 -13 7 -13 4 0 7 -6 7 -13 0
-10 -15 -13 -48 -13 -26 1 -45 -2 -43 -6 3 -5 -2 -8 -10 -8 -17 0 -48 39 -40
52 3 4 0 8 -5 8 -6 0 -11 7 -11 15 0 8 -4 15 -10 15 -5 0 -10 7 -10 16 0 8 -4
13 -8 10 -4 -2 -14 9 -21 25 -7 16 -17 27 -22 23 -5 -3 -9 3 -9 13 0 10 -9 25
-19 33 -11 7 -18 17 -15 22 3 4 -2 8 -10 8 -9 0 -16 6 -16 13 0 7 -14 23 -31
37 -17 14 -42 35 -55 48 -13 12 -28 22 -33 22 -6 0 -15 9 -21 20 -6 11 -17 20
-25 20 -8 0 -15 5 -15 10 0 6 -9 10 -20 10 -11 0 -20 5 -20 10 0 6 -6 10 -14
10 -8 0 -16 5 -18 10 -2 6 -13 12 -25 13 -12 0 -19 5 -17 9 3 4 -4 8 -15 8
-12 0 -21 3 -21 8 0 4 -11 12 -25 19 -15 6 -22 7 -19 1 4 -6 -5 -2 -20 7 -14
10 -26 13 -26 9 0 -5 -4 -4 -8 3 -4 7 -22 13 -40 15 -20 1 -32 8 -32 17 0 11
-4 10 -15 -5 -9 -12 -14 -14 -13 -5 2 10 -7 15 -27 16 -16 0 -36 5 -44 9 -11
7 -12 6 -6 -5 8 -12 6 -12 -8 0 -26 20 -238 22 -255 1 -8 -8 -11 -9 -7 -2 7
14 -29 13 -52 -1 -8 -5 -13 -3 -13 5 0 10 -2 10 -9 0 -4 -8 -11 -13 -15 -13
-28 4 -56 -1 -51 -8 3 -6 -3 -8 -14 -6 -10 2 -31 -3 -45 -10 -17 -9 -24 -10
-20 -3 4 7 -7 2 -24 -11 -18 -12 -36 -20 -41 -17 -5 3 -14 -1 -21 -9 -7 -8
-18 -15 -25 -15 -19 0 -95 -42 -95 -52 0 -5 -4 -6 -10 -3 -5 3 -10 1 -10 -5 0
-6 -4 -9 -9 -6 -5 3 -12 -1 -15 -10 -3 -8 -10 -13 -15 -9 -5 3 -17 -5 -25 -17
-9 -12 -16 -19 -16 -15 0 4 -18 -10 -39 -31 -21 -20 -49 -47 -62 -59 -41 -37
-74 -76 -72 -85 2 -4 -5 -8 -15 -8 -14 0 -15 -2 -2 -10 13 -8 12 -10 -3 -10
-10 0 -16 -4 -13 -8 3 -5 -4 -15 -15 -22 -10 -8 -19 -23 -19 -33 0 -10 -4 -16
-8 -13 -4 3 -17 -15 -28 -40 -10 -24 -23 -44 -27 -44 -5 0 -5 -4 -2 -10 3 -5
1 -10 -4 -10 -6 0 -11 5 -11 11 0 5 -4 7 -10 4 -5 -3 -10 -1 -10 5 0 6 -4 8
-10 5 -5 -3 -10 -2 -10 3 0 5 -10 9 -23 9 -67 1 -70 2 -53 19 9 8 13 20 10 26
-4 6 -2 13 4 17 7 4 13 17 15 30 2 12 8 26 14 29 6 4 9 15 8 24 -2 10 1 16 7
15 6 -1 12 7 14 18 1 11 8 21 13 23 6 2 11 10 11 17 0 8 8 19 18 24 9 6 13 11
8 11 -5 0 9 18 32 39 22 21 38 42 35 45 -4 3 -1 6 6 6 16 0 42 26 34 34 -4 3
-1 6 5 6 7 0 26 14 44 30 17 17 35 30 40 30 5 0 6 5 2 12 -4 6 -3 8 4 4 6 -3
17 1 25 9 9 8 23 15 31 15 9 0 16 7 16 15 0 8 3 14 8 13 4 -1 36 13 71 30 35
17 69 28 74 25 6 -3 7 -1 3 5 -4 7 -1 13 8 13 35 3 41 5 39 15 -1 5 16 10 37
9 21 -1 36 3 34 7 -5 8 11 12 30 9 4 -1 14 4 22 10 11 9 14 8 14 -2 0 -12 2
-12 9 0 5 7 14 10 20 7 6 -4 11 -2 11 4 0 7 8 9 19 5 11 -3 23 -1 26 6 6 8 10
7 16 -2 7 -11 9 -11 9 1 0 13 1 13 10 0 5 -8 10 -10 10 -4 0 5 21 11 47 13 26
1 49 3 50 4 5 6 223 0 229 -6z"/>
</g>
</svg>
