<?xml version="1.0" encoding="UTF-8"?>
<svg width="18px" height="18px" viewBox="0 0 18 18" version="1.1" xmlns="http://www.w3.org/2000/svg" xmlns:xlink="http://www.w3.org/1999/xlink">
    <title>tag</title>
    <g id="Desktop-Design-Concept-Approved" stroke="none" stroke-width="1" fill="none" fill-rule="evenodd">
        <g id="Journey---Extend" transform="translate(-395.000000, -177.000000)" fill="#F26B73" fill-rule="nonzero">
            <g id="Nav---Customer-Options" transform="translate(0.000000, 136.000000)">
                <g id="Group-4" transform="translate(320.000000, 32.000000)">
                    <g id="tag" transform="translate(76.000000, 10.000000)">
                        <path d="M14.2775879,0 L8.20544435,0 C8.08117676,0 7.96191407,0.0494411092 7.87402345,0.137336428 L0.503540039,7.50796935 C-0.16784668,8.17963606 -0.16784668,9.27234579 0.503540039,9.94376837 L6.05664063,15.4970435 C6.38085938,15.8212795 6.81335451,16 7.27429201,16 L7.27441407,16 C7.73547363,16 8.16796876,15.8212795 8.49230957,15.4969214 L15.8625488,8.12616643 C15.9504394,8.03827111 16,7.91900202 16,7.79472782 L16,1.72225995 C16,0.772624263 15.2271729,0 14.2775879,0 Z M15.0625,7.60062564 L7.8293457,14.8340442 C7.68212891,14.9813909 7.48498535,15.0624499 7.27441407,15.0624499 C7.0637207,15.0624499 6.86669923,14.9813909 6.71948245,14.8341663 L1.16638185,9.28089116 C0.860473633,8.97496663 0.860473633,8.47689316 1.16638185,8.17084653 L8.39953613,0.937550071 L14.2775879,0.937550071 C14.7103272,0.937550071 15.0625,1.28961965 15.0625,1.72238202 L15.0625,7.60062564 Z" id="Shape" stroke="#F26B73" stroke-width="1.2"></path>
                        <path d="M11.5000622,3 C11.0993742,3 10.7226804,3.15614122 10.4393519,3.43945799 C10.1560234,3.72265041 10,4.0993287 10,4.5 C10,4.9006713 10.1560234,5.27734959 10.4393519,5.56066632 C10.7226804,5.84398309 11.0993742,6 11.5000622,6 C11.9006258,6 12.2773196,5.84398309 12.5606481,5.56066632 C12.8439767,5.27734959 13,4.9006713 13,4.5 C13,4.0993287 12.8439767,3.72265041 12.5607725,3.43945799 C12.277444,3.15614122 11.9007501,3 11.5000622,3 L11.5000622,3 Z M11.8855829,4.88550473 C11.7826447,4.9885629 11.6456425,5.04525112 11.5000622,5.04525112 C11.3543575,5.04525112 11.2174796,4.9885629 11.1145415,4.88550473 C11.011479,4.78257087 10.9547885,4.64557433 10.9547885,4.50000002 C10.9547885,4.35442567 11.011479,4.21742913 11.1145415,4.11449527 C11.2174796,4.0114371 11.3544818,3.95474888 11.5000622,3.95474888 C11.6456425,3.95474888 11.7825204,4.0114371 11.8855829,4.11449527 C11.9886453,4.21742913 12.0453359,4.35442567 12.0453359,4.50000002 C12.0453359,4.64557433 11.988521,4.78257087 11.8855829,4.88550473 L11.8855829,4.88550473 Z" id="Shape"></path>
                    </g>
                </g>
            </g>
        </g>
    </g>
</svg>