<?xml version="1.0" encoding="UTF-8"?>
<svg width="10px" height="7px" viewBox="0 0 10 7" version="1.1" xmlns="http://www.w3.org/2000/svg" xmlns:xlink="http://www.w3.org/1999/xlink">
    <title>aangle-down 2</title>
    <g id="Symbols" stroke="none" stroke-width="1" fill="none" fill-rule="evenodd">
        <g id="nav/secondary-nav" transform="translate(-130.000000, -16.000000)" fill="#212121" fill-rule="nonzero">
            <g id="Group-2" transform="translate(62.000000, 8.000000)">
                <g id="aangle-down-2" transform="translate(67.999214, 8.021117)">
                    <path d="M5.26639827,5.84763468 L9.89138724,1.26015172 C10.038268,1.11327097 10.038268,0.87578374 9.89138724,0.728902986 L9.27264482,0.110160565 C9.12576407,-0.0367201883 8.88827684,-0.0367201883 8.74139609,0.110160565 L5.0007739,3.81327674 L1.26015172,0.110160565 C1.11327097,-0.0367201883 0.87578374,-0.0367201883 0.728902986,0.110160565 L0.110160565,0.728902986 C-0.0367201883,0.87578374 -0.0367201883,1.11327097 0.110160565,1.26015172 L4.73514954,5.84763468 C4.88203029,5.99451543 5.11951752,5.99451543 5.26639827,5.84763468 Z M5.26639827,5.84763468 L9.89138724,1.26015172 C10.038268,1.11327097 10.038268,0.87578374 9.89138724,0.728902986 L9.27264482,0.110160565 C9.12576407,-0.0367201883 8.88827684,-0.0367201883 8.74139609,0.110160565 L5.0007739,3.81327674 L1.26015172,0.110160565 C1.11327097,-0.0367201883 0.87578374,-0.0367201883 0.728902986,0.110160565 L0.110160565,0.728902986 C-0.0367201883,0.87578374 -0.0367201883,1.11327097 0.110160565,1.26015172 L4.73514954,5.84763468 C4.88203029,5.99451543 5.11951752,5.99451543 5.26639827,5.84763468 Z" id="aangle-down"></path>
                </g>
            </g>
        </g>
    </g>
</svg>