<?xml version="1.0" encoding="UTF-8"?>
<svg width="24px" height="17px" viewBox="0 0 24 17" version="1.1" xmlns="http://www.w3.org/2000/svg" xmlns:xlink="http://www.w3.org/1999/xlink">
    <title>return</title>
    <g id="Desktop-Design-Concept-Approved" stroke="none" stroke-width="1" fill="none" fill-rule="evenodd">
        <g id="Journey---Turn-In" transform="translate(-119.000000, -180.000000)" fill="#009E98" fill-rule="nonzero">
            <g id="Nav---Customer-Options" transform="translate(0.000000, 136.000000)">
                <g id="Group-4" transform="translate(80.000000, 32.000000)">
                    <g id="return" transform="translate(39.000000, 12.000000)">
                        <path d="M17.7896799,4.66446518 L3.57812741,4.66446518 L6.48573983,1.77682967 C6.8950413,1.37034033 6.8950413,0.711399713 6.48573983,0.304910373 C6.07632191,-0.101694611 5.41293914,-0.101578967 5.00352122,0.304910373 L0.306976101,4.96941891 C-0.102325367,5.37590825 -0.102325367,6.03484887 0.306976101,6.44133821 L5.00352122,11.1056155 C5.20823018,11.308918 5.47640124,11.4104536 5.7445723,11.4104536 C6.01274337,11.4104536 6.28091443,11.3088023 6.48562338,11.1056155 C6.89492485,10.6991261 6.89492485,10.0401855 6.48562338,9.63369617 L3.57801096,6.74606066 L17.7895634,6.74606066 C20.0582464,6.74606066 21.9040039,8.57913677 21.9040039,10.8322326 C21.9040039,13.0853284 20.0582464,14.9184045 17.7895634,14.9184045 L9.14451093,14.9184045 C8.56566666,14.9184045 8.09651286,15.384335 8.09651286,15.9592023 C8.09651286,16.5340695 8.56566666,17 9.14451093,17 L17.7895634,17 C21.2139554,17 24,14.233097 24,10.8322326 C24,7.43136815 21.2140718,4.66446518 17.7896799,4.66446518 Z" id="Path"></path>
                    </g>
                </g>
            </g>
        </g>
    </g>
</svg>