<?xml version="1.0" encoding="UTF-8"?>
<svg width="26px" height="13px" viewBox="0 0 26 13" version="1.1" xmlns="http://www.w3.org/2000/svg" xmlns:xlink="http://www.w3.org/1999/xlink">
    <title>right-arrow</title>
    <g id="Desktop-Design-Concept-Approved" stroke="none" stroke-width="1" fill="none" fill-rule="evenodd">
        <g id="Journey---Turn-In" transform="translate(-239.000000, -180.000000)" fill="#C8D3DB" fill-rule="nonzero">
            <g id="Nav---Customer-Options" transform="translate(0.000000, 136.000000)">
                <g id="Group-4" transform="translate(200.000000, 32.000000)">
                    <g id="right-arrow" transform="translate(39.000000, 12.000000)">
                        <path d="M25.7021044,5.75789884 C25.7017997,5.75758432 25.7015458,5.75721738 25.7011904,5.75690287 L20.3943493,0.305286902 C19.996783,-0.103112521 19.3537404,-0.101592359 18.9580023,0.30885142 C18.562315,0.71924278 18.5638384,1.38302944 18.9614047,1.79148129 L22.5244185,5.45161237 L1.0156245,5.45161237 C0.454695087,5.45161237 0,5.92097554 0,6.5 C0,7.07902458 0.454695087,7.54838775 1.0156245,7.54838775 L22.5243677,7.54838775 L18.9614554,11.2085188 C18.5638892,11.6169707 18.5623658,12.2807573 18.9580531,12.6911487 C19.3537912,13.1016449 19.9968846,13.1030602 20.3944,12.6947132 L25.7012412,7.24309725 C25.7015458,7.24278274 25.7017997,7.2424158 25.7021552,7.24210128 C26.0999245,6.83228654 26.098655,6.16635068 25.7021044,5.75789884 Z" id="Path"></path>
                    </g>
                </g>
            </g>
        </g>
    </g>
</svg>