<?xml version="1.0" encoding="UTF-8"?>
<svg width="48px" height="30px" viewBox="0 0 48 30" version="1.1" xmlns="http://www.w3.org/2000/svg" xmlns:xlink="http://www.w3.org/1999/xlink">
    <title>vehicle</title>
    <defs>
        <polygon id="path-1" points="0 0 48 0 48 26.25 0 26.25"></polygon>
        <polygon id="path-3" points="0 0 8.47058824 0 8.47058824 4.6875 0 4.6875"></polygon>
        <polygon id="path-5" points="0 0 8.47058824 0 8.47058824 4.6875 0 4.6875"></polygon>
    </defs>
    <g id="Desktop-Design-Concept-Approved" stroke="none" stroke-width="1" fill="none" fill-rule="evenodd">
        <g id="Journey---Turn-In" transform="translate(-108.000000, -208.000000)">
            <g id="Nav---Customer-Options" transform="translate(0.000000, 136.000000)">
                <g id="Group-4" transform="translate(80.000000, 32.000000)">
                    <g id="vehicle" transform="translate(28.000000, 40.000000)">
                        <g id="Rectangle-2" transform="translate(0.941176, 0.937500)" fill="#FFFFFF">
                            <polygon id="Path" points="35.2824502 0 39.7504404 7.6635906 42.7496354 7.6635906 42.7496354 7.84605705 45.1764706 7.84605705 45.1764706 12.9551174 43.3096743 12.9551174 43.3096743 24.2680369 42.7496354 24.2680369 42.7496354 27.1875 36.5892076 27.1875 36.5892076 24.2680369 8.587263 24.2680369 8.587263 27.1875 2.4268352 27.1875 2.4268352 24.2680369 1.68011667 24.2680369 1.68011667 12.9551174 0 12.9551174 0 7.84605705 2.4268352 7.84605705 2.4268352 7.6635906 5.63660476 7.6635906 9.70734079 0"></polygon>
                        </g>
                        <path d="M34.4552201,2.8125 L24.4705299,2.8125 L14.4859563,2.8125 C13.9273233,2.8125 13.3907416,3.04332627 13.0232199,3.43569915 L11.2941176,6.5625 L37.6470588,6.5625 L35.9179566,3.43569915 C35.5503182,3.04332627 35.0137365,2.8125 34.4552201,2.8125" id="Fill-1" fill="#009E98"></path>
                        <path d="M40.7380127,22.5 L32.9411765,22.5 L32.9411765,20.6050145 C32.9411765,19.066537 34.1269991,17.7429965 35.699376,17.5254788 L40.655213,16.880176 C41.0264686,16.8334772 41.3609374,17.1078938 41.4065999,17.4963535 C41.4522623,17.8848132 41.1900827,18.2391092 40.8206956,18.2870368 L35.8697636,18.9319709 C34.9704116,19.056337 34.2885111,19.7754975 34.2885111,20.6050145 L34.2885111,21.0819561 L40.7380127,21.0819561 C41.1100858,21.0819561 41.4117647,21.3995075 41.4117647,21.7909166 C41.4117647,22.1824486 41.1100858,22.5 40.7380127,22.5" id="Fill-3" fill="#009E98"></path>
                        <path d="M15.0588235,22.5 L7.26194845,22.5 C6.8900125,22.5 6.58837654,22.1824871 6.58837654,21.7910025 C6.58837654,21.3996408 6.8900125,21.0821279 7.26194845,21.0821279 L13.7115629,21.0821279 L13.7115629,20.6052442 C13.7115629,19.7758277 13.0296998,19.0567544 12.1254926,18.9319119 L7.17927007,18.2875474 C6.81002,18.2396256 6.54773801,17.8853726 6.59339797,17.49696 C6.6391747,17.1080558 6.97502643,16.8307235 7.34474361,16.8808571 L12.2958708,17.5255902 C13.8730661,17.7430816 15.0588235,19.0669531 15.0588235,20.6052442 L15.0588235,22.5 Z" id="Fill-5" fill="#009E98"></path>
                        <path d="M2.82352941,26.25 C2.30375333,26.25 1.88235294,25.9426541 1.88235294,25.5637053 L1.88235294,14.7487947 C1.88235294,14.3698459 2.30375333,14.0625 2.82352941,14.0625 C3.3433055,14.0625 3.76470588,14.3698459 3.76470588,14.7487947 L3.76470588,25.5637053 C3.76470588,25.9426541 3.3433055,26.25 2.82352941,26.25" id="Fill-7" fill="#009E98"></path>
                        <g id="Group-11">
                            <mask id="mask-2" fill="white">
                                <use xlink:href="#path-1"></use>
                            </mask>
                            <g id="Clip-10"></g>
                            <path d="M44.9248068,26.25 C44.544242,26.25 44.2357049,25.9443682 44.2357049,25.5675327 L44.2357049,14.8129357 C44.2357049,14.6290125 44.3105995,14.4534871 44.4433075,14.3251549 L46.4545914,12.3794725 C46.467253,12.3671715 46.4806313,12.3551071 46.4941291,12.3437523 C46.576549,12.2758604 46.6219396,12.1893988 46.6219396,12.1013995 L46.6219396,9.98019172 C46.6219396,9.78313963 46.3996448,9.6166034 46.1364985,9.6166034 L41.5471446,9.6166034 C41.3014378,9.6166034 41.0744845,9.4869701 40.951213,9.27643425 L37.0105872,2.54863108 C36.3549311,1.80619651 35.3291022,1.3647809 34.2537019,1.3647809 L13.7462025,1.3647809 C12.6709217,1.3647809 11.6450928,1.80619651 10.9895562,2.54863108 L7.04881088,9.27643425 C6.92553941,9.4869701 6.69858612,9.6166034 6.45287932,9.6166034 L1.86340597,9.6166034 C1.6002596,9.6166034 1.37808428,9.78313963 1.37808428,9.98019172 L1.37808428,12.1013995 C1.37808428,12.1893988 1.42347493,12.2758604 1.50577536,12.3437523 C1.51939256,12.3551071 1.53265141,12.3671715 1.54531302,12.3794725 L3.55671642,14.3251549 C3.82894092,14.5883247 3.83407724,15.020278 3.56806409,15.2895983 C3.30205094,15.5598648 2.86570338,15.5648325 2.59371777,15.3008348 L0.599276138,13.3715931 C0.218114058,13.0453808 0,12.5843309 0,12.1013995 L0,9.98019172 C0,9.02710303 0.835904807,8.25178702 1.86340597,8.25178702 L6.05594996,8.25178702 L9.8292276,1.80986315 C9.84929505,1.77532581 9.87246818,1.74291748 9.89814973,1.71240161 C10.8102631,0.640442957 12.2487886,-3.54835701e-05 13.7462025,-3.54835701e-05 L34.2537019,-3.54835701e-05 C35.7511159,-3.54835701e-05 37.1896414,0.640442957 38.1017547,1.71240161 C38.1275557,1.74291748 38.1507288,1.77532581 38.1707963,1.80986315 L41.9440739,8.25178702 L46.1364985,8.25178702 C47.1639996,8.25178702 48.0000239,9.02710303 48.0000239,9.98019172 L48.0000239,12.1013995 C48.0000239,12.5843309 47.7819098,13.0453808 47.4007478,13.3715931 L45.6139087,15.0999978 L45.6139087,25.5675327 C45.6139087,25.9443682 45.3053716,26.25 44.9248068,26.25" id="Fill-9" fill="#009E98" mask="url(#mask-2)"></path>
                        </g>
                        <g id="Group-14" transform="translate(36.705882, 25.312500)">
                            <mask id="mask-4" fill="white">
                                <use xlink:href="#path-3"></use>
                            </mask>
                            <g id="Clip-13"></g>
                            <path d="M4.23529412,4.68753295 C1.89989965,4.68753295 0,3.03566136 0,1.00533425 L0,0.633687857 C0,0.283786728 0.298615114,0 0.666826163,0 C1.03515282,0 1.33376793,0.283786728 1.33376793,0.633687857 L1.33376793,1.00533425 C1.33376793,2.337177 2.63539688,3.42026706 4.23529412,3.42026706 C5.83519136,3.42026706 7.1368203,2.337177 7.1368203,1.00533425 L7.1368203,0.633687857 C7.1368203,0.283786728 7.43543542,0 7.80376207,0 C8.17197312,0 8.47058824,0.283786728 8.47058824,0.633687857 L8.47058824,1.00533425 C8.47058824,3.03566136 6.57068859,4.68753295 4.23529412,4.68753295" id="Fill-12" fill="#009E98" mask="url(#mask-4)"></path>
                        </g>
                        <g id="Group-17" transform="translate(2.823529, 25.312500)">
                            <mask id="mask-6" fill="white">
                                <use xlink:href="#path-5"></use>
                            </mask>
                            <g id="Clip-16"></g>
                            <path d="M4.23523631,4.68753295 C1.89992558,4.68753295 0,3.03566136 0,1.00533425 L0,0.633687857 C0,0.283786728 0.29861919,0 0.666835264,0 C1.03516695,0 1.33378614,0.283786728 1.33378614,0.633687857 L1.33378614,1.00533425 C1.33378614,2.337177 2.63543285,3.42026706 4.23523631,3.42026706 C5.83515539,3.42026706 7.1368021,2.337177 7.1368021,1.00533425 L7.1368021,0.633687857 C7.1368021,0.283786728 7.43542129,0 7.80375297,0 C8.17196905,0 8.47058824,0.283786728 8.47058824,0.633687857 L8.47058824,1.00533425 C8.47058824,3.03566136 6.57066266,4.68753295 4.23523631,4.68753295" id="Fill-15" fill="#009E98" mask="url(#mask-6)"></path>
                        </g>
                        <path d="M40.7333934,27.1875 L7.26660657,27.1875 C6.89196783,27.1875 6.58823529,26.7676196 6.58823529,26.2499188 C6.58823529,25.7323804 6.89196783,25.3125 7.26660657,25.3125 L40.7333934,25.3125 C41.1080322,25.3125 41.4117647,25.7323804 41.4117647,26.2499188 C41.4117647,26.7676196 41.1080322,27.1875 40.7333934,27.1875" id="Fill-18" fill="#009E98"></path>
                        <path d="M26.662186,22.5 L21.337814,22.5 C20.9888221,22.5 20.7058824,22.0801196 20.7058824,21.5624188 C20.7058824,21.0448804 20.9888221,20.625 21.337814,20.625 L26.662186,20.625 C27.0111779,20.625 27.2941176,21.0448804 27.2941176,21.5624188 C27.2941176,22.0801196 27.0111779,22.5 26.662186,22.5" id="Fill-20" fill="#009E98"></path>
                        <path d="M37.8955369,9.375 L11.0456396,9.375 C10.6630885,9.375 10.3529412,8.95511959 10.3529412,8.43741875 C10.3529412,7.91988041 10.6630885,7.5 11.0456396,7.5 L37.8955369,7.5 C38.2779679,7.5 38.5882353,7.91988041 38.5882353,8.43741875 C38.5882353,8.95511959 38.2779679,9.375 37.8955369,9.375" id="Fill-22" fill="#009E98"></path>
                    </g>
                </g>
            </g>
        </g>
    </g>
</svg>