<?xml version="1.0" encoding="UTF-8"?>
<svg width="91px" height="91px" viewBox="0 0 91 91" version="1.1" xmlns="http://www.w3.org/2000/svg" xmlns:xlink="http://www.w3.org/1999/xlink">
    <title>Path</title>
    <g id="Page-1" stroke="none" stroke-width="1" fill="none" fill-rule="evenodd">
        <g id="close" transform="translate(0.450000, 0.450000)" fill="#FFFFFF" fill-rule="nonzero">
            <path d="M55.75,45.05 L87.85,77.15 C90.85,80.15 90.85,84.85 87.85,87.85 C84.85,90.85 80.15,90.85 77.15,87.85 L45.05,55.75 L12.95,87.85 C9.95,90.85 5.25,90.85 2.25,87.85 C-0.75,84.85 -0.75,80.15 2.25,77.15 L34.35,45.05 L2.25,12.95 C-0.75,9.95 -0.75,5.25 2.25,2.25 C5.25,-0.75 9.95,-0.75 12.95,2.25 L45.05,34.35 L77.15,2.25 C80.15,-0.75 84.85,-0.75 87.85,2.25 C90.85,5.25 90.85,9.95 87.85,12.95 L55.75,45.05 Z" id="Path"></path>
        </g>
    </g>
</svg>