<?xml version="1.0" encoding="UTF-8"?>
<svg width="21px" height="14px" viewBox="0 0 21 14" version="1.1" xmlns="http://www.w3.org/2000/svg" xmlns:xlink="http://www.w3.org/1999/xlink">
    <!-- Generator: Sketch 62 (91390) - https://sketch.com -->
    <title>l 2</title>
    <desc>Created with Sketch.</desc>
    <g id="Page-1" stroke="none" stroke-width="1" fill="none" fill-rule="evenodd">
        <g id="Desktop" transform="translate(-376.000000, -646.000000)" fill="#40ACE4" fill-rule="nonzero">
            <g id="l-2" transform="translate(376.000000, 646.250038)">
                <path d="M14.249966,13.4999678 C14.4062154,13.4999678 14.5312154,13.4374682 14.6249651,13.3124683 L14.6249651,13.3124683 L20.8124504,7.12498301 C20.9374503,7.03123324 20.9999499,6.9062333 20.9999499,6.74998391 C20.9999499,6.59373452 20.9374503,6.46873458 20.8124504,6.3749848 L20.8124504,6.3749848 L14.6249651,0.187499553 C14.5312154,0.0624996126 14.4062154,0 14.249966,0 C14.0937166,0 13.9687167,0.0624996126 13.8749669,0.187499553 L13.8749669,0.187499553 L12.9374692,1.07812243 C12.8124692,1.20312237 12.7499696,1.34374703 12.7499696,1.5 C12.7499696,1.65624581 12.8124692,1.78124575 12.9374692,1.87499553 L12.9374692,1.87499553 L16.7343351,5.53123681 L0.562498659,5.53123681 C0.40624927,5.53123681 0.27343661,5.58592442 0.164062109,5.69529892 C0.054687608,5.80467342 0,5.93748608 0,6.09373547 L0,6.09373547 L0,7.40623234 C0,7.56248173 0.054687608,7.69529439 0.164062109,7.80466889 C0.27343661,7.91404339 0.40624927,7.968731 0.562498659,7.968731 L0.562498659,7.968731 L16.7343351,7.968731 L12.9374692,11.6249723 C12.8124692,11.7187221 12.7499696,11.843722 12.7499696,11.9999714 C12.7499696,12.1562208 12.8124692,12.2968454 12.9374692,12.4218454 L12.9374692,12.4218454 L13.8749669,13.3124683 C13.9687167,13.4374682 14.0937166,13.4999678 14.249966,13.4999678 Z" id="l"></path>
            </g>
        </g>
    </g>
</svg>