<?xml version="1.0" encoding="utf-8"?>
<!-- Generator: Adobe Illustrator 24.1.0, SVG Export Plug-In . SVG Version: 6.00 Build 0)  -->
<!DOCTYPE svg PUBLIC "-//W3C//DTD SVG 1.1//EN" "http://www.w3.org/Graphics/SVG/1.1/DTD/svg11.dtd" [
	<!ENTITY ns_extend "http://ns.adobe.com/Extensibility/1.0/">
	<!ENTITY ns_ai "http://ns.adobe.com/AdobeIllustrator/10.0/">
	<!ENTITY ns_graphs "http://ns.adobe.com/Graphs/1.0/">
	<!ENTITY ns_vars "http://ns.adobe.com/Variables/1.0/">
	<!ENTITY ns_imrep "http://ns.adobe.com/ImageReplacement/1.0/">
	<!ENTITY ns_sfw "http://ns.adobe.com/SaveForWeb/1.0/">
	<!ENTITY ns_custom "http://ns.adobe.com/GenericCustomNamespace/1.0/">
	<!ENTITY ns_adobe_xpath "http://ns.adobe.com/XPath/1.0/">
]>
<svg version="1.1" id="Layer_1" xmlns:x="&ns_extend;" xmlns:i="&ns_ai;" xmlns:graph="&ns_graphs;"
	 xmlns="http://www.w3.org/2000/svg" xmlns:xlink="http://www.w3.org/1999/xlink" x="0px" y="0px" viewBox="0 0 546.1 120.4"
	 style="enable-background:new 0 0 546.1 120.4;" xml:space="preserve">
<style type="text/css">
	.st0{fill:#FFFFFF;}
</style>
<metadata>
	<sfw  xmlns="&ns_sfw;">
		<slices></slices>
		<sliceSourceBounds  bottomLeftOrigin="true" height="115.7" width="540.5" x="2" y="24.4"></sliceSourceBounds>
	</sfw>
</metadata>
<g>
	<g>
		<path class="st0" d="M2,2v115.7h117.6V2H2z M62.1,86.1c-22.5,0-40.5-11.7-40.5-26.2c0-14.3,17.8-25.5,40.1-25.5
			c22.8,0,40.2,11.3,40.2,26C101.9,74.6,84,86.1,62.1,86.1z"/>
	</g>
	<path class="st0" d="M61.8,44.1c-2.5,0-4.7,3.7-5.7,9.8l0.4,0.1c1.6,0.1,3.5,0.2,5.4,0.2c1.9,0,3.6-0.1,5.2-0.2h0.4l-0.2-0.3
		C66.4,47.4,64.5,44.1,61.8,44.1z"/>
	<path class="st0" d="M52,53.4l0.5,0.1C53.9,44.1,57.7,38,62,38c3.9,0,7.8,6.6,9.1,15.5c8.6-1.3,13.8-4.2,13.8-7.7
		c0-4.5-10.7-8.2-23.6-8.2c-12.6,0-22.8,3.7-22.8,8.4C38.7,49,43.5,51.7,52,53.4z"/>
	<path class="st0" d="M52,59.8l-0.4-0.1c-11.9-2-19.5-6.6-19.5-12.1c0-0.1,0-0.2,0.1-0.4c-3,3.6-4.7,7.7-4.7,11.9
		c0,12.5,13.1,22.5,31.3,24.1c-4.4-4.2-6.5-11.7-6.6-22.5v-0.8H52z"/>
	<path class="st0" d="M62.5,60.4c-2.5,0-4.7-0.1-6.4-0.3h-0.3C56,69,58.5,75,62,75c3.2,0,5.8-6.3,6.1-14.9
		C66.1,60.4,65.4,60.4,62.5,60.4z"/>
	<path class="st0" d="M91.5,47.8c0,5.3-8.2,10.2-19.5,11.9l-0.3,0.1v0.3c0,10.9-2.3,18.6-6.8,23c17.8-1.2,31.1-11.5,31.1-24
		c0-4.1-1.5-8.3-4.6-11.9C91.5,47.3,91.5,47.8,91.5,47.8z"/>
	<g>
		<path class="st0" d="M153.7,50.1c-2.1-0.5-3.8-1.4-5.4-2.4l2.1-7.4c1.4,1.1,3,2,4.9,2.6c1.7,0.7,3.5,1,5.2,1c1.4,0,2.4-0.2,3-0.8
			c0.7-0.5,1-1.3,1-2.2c0-0.7-0.2-1.2-0.5-1.6c-0.4-0.4-1-0.8-1.7-1.2c-0.8-0.3-2.1-0.9-3.8-1.5c-3.2-1.2-5.6-2.6-7.1-4
			c-1.5-1.5-2.3-3.6-2.3-6.2c0-2.2,0.5-4,1.5-5.6c1-1.6,2.5-2.8,4.4-3.6c1.9-0.9,4-1.2,6.4-1.2c1.9,0,3.8,0.2,5.7,0.8
			c1.9,0.4,3.5,1.1,4.7,1.7l-2.3,6.8c-1.2-0.7-2.5-1.2-3.9-1.6c-1.4-0.4-2.8-0.7-4-0.7c-1.3,0-2.3,0.2-3,0.7c-0.8,0.4-1.1,1.1-1.1,2
			c0,1,0.4,1.6,1.4,2.3c1,0.5,2.6,1.3,4.9,2.1c2.1,0.8,3.8,1.5,5,2.3c1.3,0.8,2.3,1.7,2.9,2.9c0.8,1.2,1.1,2.8,1.1,4.7
			c0,3.5-1.2,6.2-3.5,8.2c-2.3,2-5.4,2.9-9.4,2.9C157.9,51,155.8,50.7,153.7,50.1z"/>
		<path class="st0" d="M182.3,49.3c-2.1-1.1-3.6-2.6-4.8-4.6c-1.1-2-1.7-4.1-1.7-6.5s0.5-4.6,1.7-6.5c1.1-2,2.7-3.5,4.8-4.6
			c2.1-1.1,4.4-1.6,7-1.6s5,0.5,7,1.6c2,1.1,3.6,2.6,4.8,4.6c1.1,2,1.7,4.1,1.7,6.5s-0.5,4.6-1.7,6.5c-1.1,2-2.7,3.5-4.8,4.6
			c-2.1,1.1-4.4,1.6-7,1.6C186.7,51,184.3,50.4,182.3,49.3z M193.5,42.6c1.1-1.1,1.6-2.5,1.6-4.2c0-1.7-0.5-3.2-1.6-4.2
			c-1.1-1.1-2.5-1.6-4.1-1.6c-1.7,0-3.2,0.5-4.2,1.6c-1.1,1.1-1.6,2.5-1.6,4.2c0,1.7,0.5,3.2,1.6,4.2c1.1,1.1,2.5,1.6,4.2,1.6
			C191.1,44.2,192.4,43.7,193.5,42.6z"/>
		<path class="st0" d="M230.8,26.1v24.4h-7.4v-3.6c-0.9,1.4-2.1,2.5-3.6,3.2c-1.5,0.7-3,1-4.9,1c-2.7,0-4.7-0.8-6.1-2.4
			c-1.4-1.6-2.1-3.8-2.1-6.8V26.1h7.4v12.6c0,2,0.3,3.4,1,4.2c0.7,0.9,1.6,1.3,3.2,1.3c1.6,0,2.9-0.5,3.8-1.5c0.9-1,1.3-2.4,1.3-4.2
			V26.1H230.8z"/>
		<path class="st0" d="M240.6,48.8c-1.4-1.5-2.1-3.7-2.1-6.5v-9.9h-3.9v-6.2h3.9v-6.8l7.4-0.9v7.6h6.4v6.2H246v8.8
			c0,2.1,0.9,3.2,2.6,3.2c1.1,0,2.5-0.4,4-1.2l1.1,5.9c-0.9,0.5-2,1.1-3.2,1.4c-1.2,0.3-2.5,0.5-3.8,0.5C244,51,242,50.3,240.6,48.8
			z"/>
		<path class="st0" d="M279.6,28c1.4,1.5,2.1,3.8,2.1,6.8v15.8h-7.4V37.8c0-2-0.3-3.4-1-4.2c-0.7-0.9-1.7-1.3-3.2-1.3
			c-1.6,0-2.9,0.5-3.8,1.5S265,36.2,265,38v12.5h-7.4v-36h7.4v15.2c0.9-1.3,2-2.4,3.4-3c1.4-0.7,3-1,4.9-1
			C276,25.6,278.2,26.4,279.6,28z"/>
		<path class="st0" d="M298.2,51c-2.6,0-4.8-0.5-6.8-1.6c-2-1.1-3.5-2.5-4.6-4.5c-1.1-2-1.6-4.1-1.6-6.5c0-2.5,0.5-4.7,1.6-6.6
			s2.6-3.5,4.5-4.5c1.9-1.1,4-1.6,6.3-1.6c2.4,0,4.5,0.5,6.3,1.6c1.9,1.1,3.2,2.6,4.1,4.7c1,2.1,1.4,4.4,1.4,7.1v1.2h-16.8
			c0.2,1.5,1,2.7,2.1,3.5c1.1,0.8,2.6,1.2,4.4,1.2c2.6,0,5.1-0.7,7.3-2.1l1.7,5.7C305.6,50.2,302.3,51,298.2,51z M302.1,35.4
			c-0.1-1.2-0.7-2.2-1.4-2.9c-0.8-0.8-1.7-1.1-2.9-1.1s-2.2,0.3-3,1.1c-0.8,0.8-1.4,1.7-1.7,2.9H302.1z"/>
		<path class="st0" d="M332.4,28c1.9,1.5,2.8,3.9,2.8,7.1v15.5h-7.4v-2.9c-0.8,1-1.9,1.9-3.3,2.5c-1.3,0.7-2.8,1-4.5,1
			c-2.3,0-4.1-0.7-5.6-2c-1.4-1.3-2.2-3-2.2-5.3c0-2.8,1.3-4.9,3.8-6.1c2.5-1.2,6.4-1.9,11.7-2v-0.3c0-2.4-1.5-3.6-4.6-3.6
			c-2.4,0-4.9,0.8-7.3,2.3l-1.6-5.7c1.3-0.8,2.8-1.4,4.7-1.9c1.9-0.5,3.7-0.8,5.7-0.8C328,25.7,330.6,26.5,332.4,28z M326.5,44.5
			c0.9-0.8,1.4-1.9,1.4-3.2v-1.2c-2.8,0.1-4.8,0.3-5.9,0.9c-1.2,0.5-1.7,1.3-1.7,2.3c0,0.8,0.2,1.3,0.8,1.7c0.5,0.4,1.2,0.7,2.2,0.7
			C324.5,45.6,325.6,45.3,326.5,44.5z"/>
		<path class="st0" d="M343.2,50.3c-1.7-0.4-3.2-1-4.2-1.9l1.6-5.8c1.2,0.9,2.5,1.5,4,2.1c1.5,0.5,2.8,0.8,4.2,0.8
			c0.8,0,1.4-0.1,2-0.4c0.4-0.3,0.8-0.7,0.8-1.2c0-0.7-0.3-1.1-1-1.5c-0.7-0.3-2-0.9-3.8-1.4c-1.5-0.5-2.8-1.1-3.8-1.6
			c-1-0.5-1.7-1.3-2.4-2.2c-0.7-0.9-0.9-2.1-0.9-3.5c0-2.5,0.9-4.5,2.7-6c1.7-1.4,4.1-2.2,7.2-2.2c1.5,0,2.9,0.2,4.5,0.5
			c1.4,0.3,2.7,0.9,3.8,1.5l-1.2,5.4c-1.1-0.7-2.2-1.1-3.5-1.5c-1.3-0.4-2.5-0.7-3.6-0.7c-0.8,0-1.4,0.1-1.9,0.4
			c-0.4,0.2-0.7,0.7-0.7,1.2c0,0.5,0.3,1,1,1.3c0.7,0.3,1.6,0.7,2.9,1c2.8,0.7,4.8,1.6,6.1,2.8c1.3,1.2,1.9,2.7,1.9,4.9
			c0,2.6-0.9,4.7-2.7,6.2c-1.7,1.5-4.4,2.3-7.6,2.3C346.7,51,345,50.7,343.2,50.3z"/>
		<path class="st0" d="M367.1,48.8c-1.4-1.5-2.1-3.7-2.1-6.5v-9.9h-3.9v-6.2h3.9v-6.8l7.4-0.9v7.6h6.4v6.2h-6.4v8.8
			c0,2.1,0.9,3.2,2.6,3.2c1.1,0,2.5-0.4,4-1.2l1.1,5.9c-0.9,0.5-2,1.1-3.2,1.4s-2.5,0.5-3.8,0.5C370.5,51,368.5,50.3,367.1,48.8z"/>
		<path class="st0" d="M416.5,23.4h-8.6v27.1h-8.1V23.4h-8.7v-7h25.5v7H416.5z"/>
		<path class="st0" d="M421.1,49.3c-2.1-1.1-3.6-2.6-4.8-4.6c-1.1-2-1.7-4.1-1.7-6.5s0.5-4.6,1.7-6.5c1.1-2,2.7-3.5,4.8-4.6
			c2.1-1.1,4.4-1.6,7-1.6s5,0.5,7,1.6c2.1,1.1,3.6,2.6,4.8,4.6c1.1,2,1.7,4.1,1.7,6.5s-0.5,4.6-1.7,6.5c-1.1,2-2.7,3.5-4.8,4.6
			c-2.1,1.1-4.4,1.6-7,1.6S423.2,50.4,421.1,49.3z M432.3,42.6c1.1-1.1,1.6-2.5,1.6-4.2c0-1.7-0.5-3.2-1.6-4.2
			c-1.1-1.1-2.5-1.6-4.1-1.6c-1.7,0-3.2,0.5-4.2,1.6c-1.1,1.1-1.6,2.5-1.6,4.2c0,1.7,0.5,3.2,1.6,4.2c1.1,1.1,2.5,1.6,4.2,1.6
			S431.2,43.7,432.3,42.6z"/>
		<path class="st0" d="M468.3,26.1L458,53.3c-1,2.5-2.2,4.4-3.7,5.6c-1.5,1.2-3.6,1.9-6.1,1.9c-1.7,0-3.4-0.3-4.7-0.9l0.9-6.2
			c0.9,0.3,1.6,0.4,2.4,0.4c2.2,0,3.6-1,4.5-2.8l0.5-1.5l-9.6-23.5h8.1l5.2,15.1l4.9-15.1C460.4,26.1,468.3,26.1,468.3,26.1z"/>
		<path class="st0" d="M475.5,49.3c-2.1-1.1-3.6-2.6-4.8-4.6c-1.1-2-1.7-4.1-1.7-6.5s0.5-4.6,1.7-6.5c1.1-2,2.7-3.5,4.8-4.6
			c2.1-1.1,4.4-1.6,7-1.6s5,0.5,7,1.6c2.1,1.1,3.6,2.6,4.8,4.6c1.1,2,1.7,4.1,1.7,6.5s-0.5,4.6-1.7,6.5c-1.1,2-2.7,3.5-4.8,4.6
			c-2.1,1.1-4.4,1.6-7,1.6S477.5,50.4,475.5,49.3z M486.7,42.6c1.1-1.1,1.6-2.5,1.6-4.2c0-1.7-0.5-3.2-1.6-4.2
			c-1.1-1.1-2.5-1.6-4.1-1.6c-1.7,0-3.2,0.5-4.2,1.6c-1.1,1.1-1.6,2.5-1.6,4.2c0,1.7,0.5,3.2,1.6,4.2c1.1,1.1,2.5,1.6,4.2,1.6
			S485.7,43.7,486.7,42.6z"/>
		<path class="st0" d="M504.3,48.8c-1.4-1.5-2.1-3.7-2.1-6.5v-9.9h-3.9v-6.2h3.9v-6.8l7.4-0.9v7.6h6.4v6.2h-6.4v8.8
			c0,2.1,0.9,3.2,2.6,3.2c1.1,0,2.5-0.4,4-1.2l1.1,5.9c-0.9,0.5-2,1.1-3.2,1.4s-2.5,0.5-3.8,0.5C507.7,51,505.7,50.3,504.3,48.8z"/>
		<path class="st0" d="M539.7,28c1.9,1.5,2.8,3.9,2.8,7.1v15.5h-7.4v-2.9c-0.8,1-1.9,1.9-3.3,2.5c-1.3,0.7-2.8,1-4.5,1
			c-2.3,0-4.1-0.7-5.6-2c-1.4-1.3-2.2-3-2.2-5.3c0-2.8,1.3-4.9,3.8-6.1c2.5-1.2,6.4-1.9,11.7-2v-0.3c0-2.4-1.5-3.6-4.6-3.6
			c-2.4,0-4.9,0.8-7.3,2.3l-1.6-5.7c1.3-0.8,2.8-1.4,4.7-1.9c1.9-0.5,3.7-0.8,5.7-0.8C535.2,25.7,537.8,26.5,539.7,28z M533.7,44.5
			c0.9-0.8,1.4-1.9,1.4-3.2v-1.2c-2.8,0.1-4.8,0.3-5.9,0.9c-1.2,0.5-1.7,1.3-1.7,2.3c0,0.8,0.2,1.3,0.8,1.7c0.5,0.4,1.2,0.7,2.2,0.7
			C531.7,45.6,532.8,45.3,533.7,44.5z"/>
	</g>
	<g>
		<path class="st0" d="M149.1,70.1h20.3v5.7h-13.8v8.7h13.1v5.7h-13.1v13.9h-6.4V70.1z"/>
		<path class="st0" d="M174.6,74.8c-0.7-0.8-1.1-1.6-1.1-2.6s0.3-1.9,1.1-2.6c0.7-0.7,1.6-1.1,2.6-1.1c1,0,1.9,0.3,2.6,1.1
			c0.7,0.7,1.1,1.5,1.1,2.6c0,1-0.3,1.9-1.1,2.6c-0.7,0.8-1.5,1.1-2.6,1.1C176.3,75.9,175.4,75.5,174.6,74.8z M174.2,79.9h6v24.3h-6
			V79.9z"/>
		<path class="st0" d="M207.2,81.9c1.4,1.6,2.2,3.9,2.2,7v15.4h-6V91.2c0-2.2-0.4-3.7-1.2-4.8c-0.8-1-2.1-1.5-3.8-1.5
			c-1.9,0-3.4,0.5-4.5,1.7c-1.1,1.2-1.6,2.7-1.6,4.7v13h-6V79.9h6v4c0.9-1.4,2.1-2.5,3.5-3.4c1.5-0.8,3.2-1.2,4.9-1.2
			C203.6,79.4,205.8,80.3,207.2,81.9z"/>
		<path class="st0" d="M233.1,81.8c1.9,1.5,2.7,3.9,2.7,7.1v15.4h-6v-3.4c-0.8,1.2-2,2.1-3.4,2.8c-1.4,0.8-3,1.1-4.9,1.1
			c-2.4,0-4.4-0.7-5.8-2c-1.4-1.3-2.2-3-2.2-5.3c0-1.9,0.5-3.4,1.7-4.6c1.1-1.1,2.8-2,5.2-2.5c2.3-0.5,5.3-0.9,9.1-0.9v-0.4
			c0-1.5-0.4-2.6-1.3-3.5c-0.9-0.9-2.3-1.2-4-1.2c-2.6,0-5.1,0.9-7.6,2.5l-1.4-4.8c1.3-0.8,2.8-1.4,4.5-2c1.7-0.5,3.6-0.8,5.6-0.8
			C228.8,79.5,231.4,80.3,233.1,81.8z M228.1,98.9c1.2-0.9,1.7-2.3,1.7-4v-1.6c-3.6,0.1-6.1,0.4-7.6,1c-1.4,0.5-2.2,1.5-2.2,2.9
			c0,1,0.3,1.7,1,2.3c0.7,0.5,1.6,0.9,2.8,0.9C225.5,100.3,226.9,99.9,228.1,98.9z"/>
		<path class="st0" d="M262.1,81.9c1.4,1.6,2.2,3.9,2.2,7v15.4h-6V91.2c0-2.2-0.4-3.7-1.2-4.8c-0.8-1-2.1-1.5-3.8-1.5
			c-1.9,0-3.4,0.5-4.5,1.7c-1.1,1.2-1.6,2.7-1.6,4.7v13h-6V79.9h6v4c0.9-1.4,2.1-2.5,3.5-3.4c1.5-0.8,3.2-1.2,4.9-1.2
			C258.5,79.4,260.6,80.3,262.1,81.9z"/>
		<path class="st0" d="M274.9,103.1c-2-1.1-3.4-2.5-4.5-4.5c-1.1-1.9-1.6-4-1.6-6.5c0-2.5,0.5-4.7,1.6-6.6s2.6-3.4,4.6-4.5
			c2-1.1,4.1-1.6,6.5-1.6c3.2,0,5.9,0.8,8.2,2.4l-1.7,5.1c-1.9-1.3-3.8-2.1-6-2.1c-2.1,0-3.7,0.7-5,2c-1.3,1.3-2,3-2,5.2
			s0.7,3.9,1.9,5.2c1.2,1.3,2.9,2,5,2c1.1,0,2.2-0.2,3.4-0.5c1.2-0.4,2.3-0.9,3.3-1.5l1.5,5c-1.1,0.8-2.4,1.4-3.9,1.9
			s-3,0.7-4.8,0.7C279,104.7,276.8,104.2,274.9,103.1z"/>
		<path class="st0" d="M316.8,93.4H299c0.2,2.1,1,3.6,2.2,4.7c1.3,1.1,3,1.6,5.1,1.6c1.5,0,2.9-0.2,4.2-0.7c1.3-0.4,2.5-1.1,3.5-1.9
			l1.5,4.7c-1.2,0.9-2.6,1.5-4.4,2.1c-1.7,0.5-3.6,0.8-5.7,0.8c-2.5,0-4.8-0.5-6.8-1.6c-2-1.1-3.5-2.6-4.6-4.5
			c-1.1-1.9-1.6-4-1.6-6.4c0-2.5,0.5-4.7,1.6-6.5c1.1-2,2.5-3.4,4.4-4.5c1.9-1.1,3.9-1.6,6.2-1.6c2.3,0,4.4,0.5,6.1,1.6
			c1.7,1.1,3.2,2.6,4.1,4.6c1,2,1.4,4.2,1.4,6.9v0.8H316.8z M310.7,89.3c-0.2-1.5-0.9-2.8-1.9-3.7c-1-0.9-2.3-1.4-3.7-1.4
			c-1.5,0-2.7,0.4-3.8,1.4s-1.7,2.2-2.2,3.8h11.5V89.3z"/>
	</g>
</g>
</svg>
