<?xml version="1.0" encoding="UTF-8"?>
<svg width="27px" height="18px" viewBox="0 0 27 18" version="1.1" xmlns="http://www.w3.org/2000/svg" xmlns:xlink="http://www.w3.org/1999/xlink">
    <!-- Generator: Sketch 62 (91390) - https://sketch.com -->
    <title>e 2</title>
    <desc>Created with Sketch.</desc>
    <g id="Page-1" stroke="none" stroke-width="1" fill="none" fill-rule="evenodd">
        <g id="Desktop" transform="translate(-212.000000, -419.000000)" fill="#40ACE4" fill-rule="nonzero">
            <g id="e-2" transform="translate(212.000000, 419.375042)">
                <path d="M13.4999678,17.2499589 C16.2812109,17.2499589 18.8437051,16.5624603 21.1874495,15.1874638 C23.4999437,13.8437168 25.3280644,12.0312216 26.6718114,9.74997675 C26.8905611,9.40622781 26.9999356,9.03122871 26.9999356,8.62497944 C26.9999356,8.21873017 26.8905611,7.84373106 26.6718114,7.49998212 C25.3280644,5.21873732 23.4999437,3.40624212 21.1874495,2.06249508 C18.8437051,0.687498599 16.2812109,0 13.4999678,0 C10.7187247,0 8.15623055,0.687498599 5.81248614,2.06249508 C3.5,3.40624212 1.67187125,5.21873732 0.328124218,7.49998212 C0.109374501,7.84373106 0,8.21873017 0,8.62497944 C0,9.03122871 0.109374501,9.40622781 0.328124218,9.74997675 C1.67187125,12.0312216 3.5,13.8437168 5.81248614,15.1874638 C8.15623055,16.5624603 10.7187247,17.2499589 13.4999678,17.2499589 Z M13.4999678,14.9999642 C11.1249732,14.9999642 8.94529093,14.4218409 6.9609209,13.2655934 C4.97655087,12.1093459 3.40624212,10.5624746 2.24999464,8.62497944 C3.31249234,6.84373368 4.73436371,5.39061215 6.51560947,4.26561483 C8.29685522,3.14061751 10.2499758,2.48436908 12.3749705,2.29686952 C12.8749695,2.79686952 13.1249687,3.40624212 13.1249687,4.12499017 C13.1249687,4.84373821 12.8671568,5.46092448 12.3515331,5.97654825 C11.8359093,6.49217202 11.218723,6.74998391 10.499975,6.74998391 C9.78122692,6.74998391 9.16404065,6.49217202 8.64841688,5.97654825 C8.13279311,5.46092448 7.87498122,4.84373821 7.87498122,4.12499017 C7.37498218,5.06248793 7.12498301,6.06248531 7.12498301,7.12498301 C7.12498301,8.28123049 7.41404506,9.34372748 7.99216845,10.3124754 C8.57029183,11.2812233 9.34372748,12.054659 10.3124754,12.6327824 C11.2812233,13.2109058 12.3437203,13.4999678 13.4999678,13.4999678 C14.6562153,13.4999678 15.7187123,13.2109058 16.6874602,12.6327824 C17.6562081,12.054659 18.4296438,11.2812233 19.0077672,10.3124754 C19.5858906,9.34372748 19.8749526,8.28123049 19.8749526,7.12498301 C19.8749526,5.6874862 19.4374539,4.39061477 18.5624557,3.23436729 C19.8749526,3.79686952 21.0546375,4.53905144 22.1015098,5.46092448 C23.1483821,6.38279752 24.0311929,7.43748251 24.749941,8.62497944 C23.5936935,10.5624746 22.0233848,12.1093459 20.0390147,13.2655934 C18.0546447,14.4218409 15.8749624,14.9999642 13.4999678,14.9999642 Z" id="e"></path>
            </g>
        </g>
    </g>
</svg>